<?xml version="1.0" encoding="UTF-8"?>
<svg width="60px" height="60px" viewBox="0 0 60 60" version="1.1" xmlns="http://www.w3.org/2000/svg" xmlns:xlink="http://www.w3.org/1999/xlink">
    <title>Logo</title>
    <g id="Web" stroke="none" stroke-width="1" fill="none" fill-rule="evenodd">
        <g id="Login" transform="translate(-1502.000000, -294.000000)">
            <g id="Logo" transform="translate(1502.000000, 294.000000)">
                <g id="storm" transform="translate(0.000000, 2.000000)" fill="#F24B59" fill-rule="nonzero">
                    <path d="M45.8823529,21.375 L21.1764706,21.375 C15.1764706,21.375 10.5882353,16.74375 10.5882353,10.6875 C10.5882353,4.63125 15.1764706,0 21.1764706,0 C24.3529412,0 27.1764706,1.425 28.9411765,3.5625 C30.3529412,4.9875 30,7.125 28.5882353,8.55 C27.1764706,9.975 25.0588235,9.61875 23.6470588,8.19375 C23.2941176,7.48125 22.2352941,7.125 21.1764706,7.125 C19.0588235,7.125 17.6470588,8.55 17.6470588,10.6875 C17.6470588,12.825 19.0588235,14.25 21.1764706,14.25 L45.8823529,14.25 C48,14.25 49.4117647,15.675 49.4117647,17.8125 C49.4117647,19.95 48,21.375 45.8823529,21.375 Z" id="Path"></path>
                    <path d="M10.5882353,46.3125 C4.58823529,46.3125 0,41.68125 0,35.625 C0,29.56875 4.58823529,24.9375 10.5882353,24.9375 L56.4705882,24.9375 C58.5882353,24.9375 60,26.3625 60,28.5 C60,30.6375 58.5882353,32.0625 56.4705882,32.0625 L10.5882353,32.0625 C8.47058824,32.0625 7.05882353,33.4875 7.05882353,35.625 C7.05882353,37.7625 8.47058824,39.1875 10.5882353,39.1875 C11.6470588,39.1875 12.7058824,38.83125 13.0588235,38.11875 C14.4705882,36.69375 16.5882353,36.69375 18,37.7625 C19.4117647,39.1875 19.4117647,41.325 18.3529412,42.75 C16.5882353,44.8875 13.7647059,46.3125 10.5882353,46.3125 Z" id="Path"></path>
                    <path d="M31.7647059,57 C25.7647059,57 21.1764706,52.36875 21.1764706,46.3125 C21.1764706,40.25625 25.7647059,35.625 31.7647059,35.625 L45.8823529,35.625 C48,35.625 49.4117647,37.05 49.4117647,39.1875 C49.4117647,41.325 48,42.75 45.8823529,42.75 L31.7647059,42.75 C29.6470588,42.75 28.2352941,44.175 28.2352941,46.3125 C28.2352941,48.45 29.6470588,49.875 31.7647059,49.875 C32.8235294,49.875 33.8823529,49.51875 34.5882353,48.45 C35.6470588,47.025 38.1176471,46.66875 39.5294118,47.7375 C40.9411765,48.80625 41.2941176,51.3 40.2352941,52.725 C38.1176471,55.575 34.9411765,57 31.7647059,57 Z" id="Path"></path>
                </g>
                <rect id="Rectangle" x="0" y="0" width="60" height="60"></rect>
            </g>
        </g>
    </g>
</svg>