<?xml version="1.0" encoding="UTF-8"?>
<svg width="710px" height="430px" viewBox="0 0 710 430" version="1.1" xmlns="http://www.w3.org/2000/svg" xmlns:xlink="http://www.w3.org/1999/xlink">
    <title>rocket</title>
    <g id="Web" stroke="none" stroke-width="1" fill="none" fill-rule="evenodd">
        <g id="Login" transform="translate(-251.000000, -326.000000)" fill-rule="nonzero">
            <g id="rocket" transform="translate(251.722454, 326.000000)">
                <g id="Background_Complete" transform="translate(18.277546, 0.000000)">
                    <path d="M118.723926,411.246422 C119.211258,407.500331 114.262128,404.424837 110.536743,404.101101 C108.760688,403.950794 106.919655,404.239845 105.241065,403.615496 C101.591488,402.251179 100.140321,397.233267 96.57738,395.626148 C93.9132967,394.469947 90.8593475,395.498966 88.2819011,396.886407 C85.7044547,398.273848 83.1594971,400.00815 80.2788216,400.204704 C77.7771825,400.378134 75.0589511,399.383801 72.8713705,400.690308 C71.2360999,401.661517 70.380561,403.673306 68.8752456,404.852631 C67.310847,405.890115 65.4964434,406.416591 63.6553751,406.367254 C61.811521,406.316032 59.9749732,406.633674 58.2405717,407.303777 C56.5836418,408.12468 55.2082817,409.997725 55.5548292,411.92858 L118.723926,411.246422 Z" id="Path" fill="#F5F5F5"></path>
                    <path d="M626.946547,80.1220557 C627.737108,73.9595051 619.593243,68.8953453 613.463686,68.3634929 C610.550522,68.1091287 607.518232,68.5831711 604.8,67.5541523 C598.811228,65.3342466 596.417885,57.0674104 590.569897,54.4312725 C586.238054,52.465731 581.158969,54.2115943 576.924592,56.48931 C572.690216,58.7670257 568.499158,61.6344039 563.75579,61.9581401 C559.64054,62.2356283 555.167912,60.6053851 551.561653,62.7559187 C548.875911,64.3514759 547.468062,67.6582104 544.998911,69.6121899 C542.529761,71.5661693 539.421664,71.9245916 536.411033,72.0980217 C533.400402,72.2714518 530.292305,72.3061379 527.563244,73.6357689 C524.834183,74.9653999 522.559966,78.0640182 523.133935,81.2204466 L626.946547,80.1220557 Z" id="Path" fill="#F5F5F5"></path>
                    <path d="M26.4448459,234.301441 L52.5658577,230.03506 C54.1870987,241.320147 49.2802217,252.536464 40.1339636,258.452334 C30.9877055,264.368205 19.4039176,263.818176 10.7856785,257.058802 C2.16743949,250.299427 -1.78742137,238.662331 0.765779662,227.575458 C3.31898069,216.488585 11.8772523,208.136094 22.448721,206.413876 C24.7284013,206.040429 27.0442811,205.989891 29.336351,206.26357 L26.4448459,234.301441 Z" id="Path" fill="#F5F5F5"></path>
                    <path d="M34.9135985,206.298256 L31.7405237,227.919213 L51.6236819,223.941882 C51.6236819,223.941882 48.699688,211.871144 34.9135985,206.298256 Z" id="Path" fill="#E0E0E0"></path>
                    <path d="M523.502142,317.443846 C525.796511,317.505248 528.072872,317.894098 530.270646,318.600046 L534.678296,313.720879 L543.66687,319.501883 L541.652563,325.941922 C543.24596,327.703093 544.60845,329.686685 545.702836,331.838546 L552.059815,331.711364 L554.550625,342.614338 L548.875911,345.643585 C548.818398,348.093121 548.45418,350.523431 547.79295,352.86984 L552.363044,357.575578 L546.948241,367.172045 L540.91615,365.021511 C539.266541,366.72267 537.408601,368.177304 535.39305,369.345703 L535.512176,376.12104 L525.299857,378.791864 L522.4625,372.733371 C520.168131,372.671968 517.891769,372.283119 515.693995,371.57717 L511.286345,376.456338 L502.297772,370.675334 L504.312078,364.246857 C502.721107,362.483504 501.358869,360.500279 500.261805,358.350232 L493.915656,358.477414 L491.414017,347.57444 L497.088731,344.545194 C497.146244,342.095658 497.510461,339.665347 498.171691,337.318939 L493.601597,332.613201 L499.016401,323.016734 L505.037662,325.167267 C506.689314,323.468699 508.54691,322.014334 510.560762,320.843076 L510.441636,314.067739 L520.653955,311.396915 L523.491312,317.455408 L523.502142,317.443846 Z M520.816399,333.272235 C516.385688,334.427793 513.043672,338.319759 512.349448,343.132479 C511.655224,347.945199 513.745585,352.730347 517.645349,355.255589 C521.545114,357.78083 526.485851,357.548577 530.16264,354.667178 C533.83943,351.785779 535.527777,346.823002 534.440045,342.094048 C532.95125,335.648134 526.858623,331.702933 520.816399,333.272235 L520.816399,333.272235 Z" id="Shape" fill="#EBEBEB"></path>
                    <path d="M520.816399,333.272235 C521.70274,332.955414 522.632474,332.799097 523.567119,332.809755 C526.162227,332.76369 528.690707,333.688057 530.71466,335.422769 C532.113624,336.609773 533.227372,338.135747 533.963542,339.874142 C534.824803,341.880276 535.168756,344.095532 534.959866,346.291057 C534.856996,347.486076 534.579274,348.656488 534.136816,349.75966 C533.700937,350.911939 533.093911,351.98166 532.339101,352.92765 C529.100007,357.083295 523.697728,358.491179 519.029514,356.396253 C516.91009,355.436187 515.104885,353.826758 513.842132,351.771449 C512.705024,349.931175 512.0506,347.799197 511.946951,345.597337 C511.733836,340.827951 514.151743,336.365831 518.130657,334.185634 C518.958995,333.712932 519.855938,333.392428 520.78391,333.237549 C519.921295,333.576585 519.075482,333.962489 518.249782,334.39375 C516.057173,335.68376 514.330655,337.718287 513.343971,340.174755 C512.668384,341.854557 512.371632,343.680237 512.477602,345.504841 C512.601116,347.600493 513.243942,349.623483 514.340294,351.366779 C515.561904,353.280417 517.277358,354.774511 519.278595,355.667846 C523.693605,357.623711 528.786908,356.28886 531.851769,352.372674 C532.570397,351.480109 533.148298,350.468724 533.562847,349.378114 C533.984287,348.345361 534.254571,347.249598 534.364237,346.129189 C534.780671,342.167509 533.28861,338.250374 530.400601,335.723381 C528.46241,334.019213 526.044798,333.058419 523.534631,332.994747 C522.624644,333.036625 521.71733,333.129247 520.816399,333.272235 L520.816399,333.272235 Z" id="Path" fill="#EBEBEB"></path>
                    <path d="M271.919545,354.638828 C271.761078,353.907066 271.681146,353.158424 271.681293,352.40736 C271.646808,351.503432 271.552719,350.603221 271.399724,349.713412 C271.258966,348.495922 271.03822,347.290502 270.739118,346.106065 C270.004233,342.854631 268.821773,339.737523 267.230325,336.856458 C265.14983,333.02349 262.404296,329.648868 259.140609,326.913131 C255.22992,323.584194 250.641133,321.28315 245.744385,320.195604 C240.113331,318.969289 234.277828,319.368402 228.839369,321.351805 C225.900414,322.38355 223.127974,323.892768 220.619697,325.826302 C217.963244,327.77463 215.6222,330.172462 213.688749,332.925375 C205.107435,344.740987 204.734265,361.14599 212.768232,373.392406 C213.701705,374.812101 214.718095,376.167545 215.811352,377.450671 C216.930715,378.662778 218.120735,379.798119 219.374292,380.849901 C221.790528,382.909851 224.48997,384.559496 227.377372,385.740631 C241.762215,391.732406 258.109888,386.087042 266.483082,372.236205 C268.208214,369.433333 269.529695,366.36999 270.4034,363.148466 C270.761023,361.985153 271.036149,360.79476 271.22645,359.587367 C271.427316,358.710098 271.561319,357.816905 271.627145,356.916543 C271.659698,356.16451 271.776033,355.419292 271.973693,354.696638 C272.047297,355.446114 272.047297,356.201753 271.973693,356.951229 C271.971907,357.866604 271.892162,358.779909 271.735441,359.679863 C271.6027,360.922406 271.378189,362.151807 271.064006,363.356582 C270.283745,366.69818 269.0195,369.889197 267.316962,372.814305 C262.281989,381.58915 253.937787,387.609671 244.434002,389.324854 C238.4845,390.388579 232.376566,389.725696 226.749254,387.40556 C223.700599,386.181623 220.847574,384.461681 218.291332,382.306714 C216.961856,381.206915 215.702809,380.013362 214.522628,378.734054 C213.34928,377.397261 212.26374,375.97561 211.273746,374.479234 C202.75818,361.573725 203.15397,344.239496 212.248411,331.792298 C213.301678,330.350888 214.441165,328.983717 215.659737,327.699347 C216.900503,326.488142 218.21365,325.364261 219.590884,324.334803 C222.239538,322.327971 225.161611,320.768125 228.25457,319.709999 C233.979736,317.682165 240.110225,317.334744 246.004295,318.704105 C255.414719,320.919141 263.471592,327.363082 268.107523,336.382416 C269.680405,339.390518 270.798781,342.644785 271.421383,346.025131 C271.683064,347.245878 271.853265,348.486937 271.930374,349.736536 C272.046938,350.640404 272.083198,351.554014 272.03867,352.46517 C272.066492,353.192146 272.026587,353.920276 271.919545,354.638828 Z" id="Path" fill="#EBEBEB"></path>
                    <path d="M265.324314,332.671011 C265.400121,332.775069 264.804493,333.330046 263.656555,334.243444 L261.490633,335.862125 C261.079108,336.1743 260.635094,336.52116 260.147762,336.844896 L258.523321,337.746733 C252.660025,341.320264 245.996349,343.122829 239.246621,342.961199 L236.311797,342.822455 L233.4961,342.348412 C233.041256,342.267478 232.586413,342.198106 232.131569,342.10561 L230.821187,341.724064 C229.954818,341.4697 229.099279,341.250021 228.287059,340.972533 C225.419472,339.946311 222.663703,338.593469 220.067387,336.937392 C215.659737,334.081576 213.504645,331.491686 213.677919,331.329818 C213.851193,331.16795 216.255365,333.283798 220.695504,335.746505 C223.276825,337.165641 225.969158,338.341714 228.741902,339.261356 C229.532463,339.51572 230.355514,339.700712 231.189393,339.92039 L232.445628,340.255689 L233.75601,340.463805 L236.452582,340.891599 L239.246621,341.007219 C245.743585,341.156912 252.177168,339.617311 257.99267,336.52116 L259.638771,335.758067 C260.136932,335.480579 260.591776,335.179967 261.02496,334.914041 L263.277518,333.595972 C264.522923,332.902251 265.237677,332.555391 265.324314,332.671011 Z" id="Path" fill="#EBEBEB"></path>
                    <path d="M212.627447,375.427319 C212.55164,375.311699 213.147268,374.768285 214.295207,373.854886 L216.461128,372.236205 C216.883483,371.92403 217.316667,371.57717 217.814829,371.253434 L219.42844,370.340035 C225.32175,366.753254 232.021127,364.954146 238.802607,365.137131 L241.726601,365.275875 L244.542299,365.749918 C244.997142,365.830852 245.462815,365.900224 245.906829,365.99272 L247.228041,366.362704 C248.08358,366.617068 248.939119,366.836747 249.751339,367.114235 C252.619313,368.144304 255.375082,369.501022 257.971011,371.160938 C262.389491,374.005192 264.533753,376.595082 264.371309,376.768512 C264.208865,376.941942 261.793862,374.814533 257.342894,372.351825 C254.75058,370.917209 252.043209,369.733161 249.253178,368.81385 C248.462616,368.571048 247.639566,368.386056 246.816516,368.154816 L245.549452,367.819517 L244.23907,367.611401 L241.553327,367.195169 L238.759288,367.067987 C232.258216,366.924631 225.821687,368.468015 220.002409,371.565608 L218.367139,372.328701 C217.868977,372.606189 217.414133,372.906801 216.970119,373.161165 L214.728391,374.479234 C213.428838,375.196079 212.703254,375.531377 212.627447,375.427319 Z" id="Path" fill="#EBEBEB"></path>
                    <path d="M271.897891,355.448168 C271.897891,355.980021 257.126302,356.026269 238.943392,355.552226 C220.760482,355.078184 206.021387,354.268843 206.032211,353.736991 C206.043046,353.205138 220.792971,353.147328 238.98671,353.621371 C257.18045,354.095413 271.908715,354.927878 271.897891,355.448168 Z" id="Path" fill="#EBEBEB"></path>
                    <path d="M237.448906,388.908849 C236.950744,388.908849 236.896596,373.149603 237.34061,353.736991 C237.784624,334.324378 238.542696,318.600046 239.040858,318.611602 C239.53902,318.623171 239.593168,334.370626 239.149154,353.794801 C238.70514,373.218975 237.947068,388.977993 237.448906,388.908849 Z" id="Path" fill="#EBEBEB"></path>
                    <path d="M237.448906,388.862373 C237.318951,389.058927 233.691032,386.434351 229.510804,380.491479 C227.062861,376.996282 225.080247,373.155878 223.619498,369.079776 C221.838702,364.047796 220.974894,358.69888 221.07454,353.320759 C221.190324,347.936078 222.32105,342.631492 224.39923,337.723609 C226.069824,333.744486 228.233426,330.022938 230.832016,326.658767 C235.261325,320.877762 238.921733,318.403492 239.051688,318.56536 C239.181643,318.727229 235.911102,321.663979 231.83917,327.456545 C229.466018,330.833023 227.480846,334.501265 225.926204,338.382643 C224.033429,343.106778 223.000658,348.172538 222.883085,353.309197 C222.78237,358.467569 223.556517,363.602848 225.168132,368.46699 C226.525595,372.436547 228.344773,376.208314 230.582935,379.6937 C234.362468,385.694383 237.633009,388.642695 237.448906,388.862373 Z" id="Path" fill="#EBEBEB"></path>
                    <path d="M239.788101,318.623171 C239.907227,318.426616 243.535145,321.051192 247.726203,326.994065 C250.170349,330.489937 252.149301,334.330309 253.606679,338.405767 C255.391168,343.436978 256.258656,348.785918 256.162467,354.164785 C256.037322,359.548222 254.907014,364.850848 252.837777,369.761935 C251.159103,373.736467 248.996142,377.456912 246.404991,380.826777 C241.964852,386.549971 238.304445,389.082051 238.185319,388.920183 C238.066194,388.758315 241.325905,385.821565 245.397837,380.028999 C247.767297,376.651991 249.748827,372.983762 251.299973,369.1029 C253.220451,364.3691 254.275425,359.286918 254.40807,354.130099 C254.490482,348.986277 253.709244,343.868282 252.101364,339.018554 C250.748354,335.046916 248.928896,331.274567 246.686561,327.791843 C242.863709,321.791161 239.603998,318.842849 239.788101,318.623171 Z" id="Path" fill="#EBEBEB"></path>
                    <polygon id="Rectangle" fill="#F5F5F5" transform="translate(166.633681, 175.243125) rotate(-5.080000) translate(-166.633681, -175.243125) " points="139.184721 155.594209 194.304143 155.265604 194.08264 194.892041 138.963218 195.220646"></polygon>
                    <path d="M192.408571,152.928024 C192.266097,153.131854 192.10661,153.321476 191.932068,153.494563 C191.585521,153.899233 191.109018,154.419523 190.52422,155.066996 C189.246326,156.465999 187.47027,158.408416 185.27186,160.79019 L167.771215,179.590016 L167.630431,179.740322 L167.457157,179.61314 L167.045632,179.32409 L146.112002,164.432223 L139.798341,159.86523 L138.098093,158.593409 C137.89362,158.458788 137.701452,158.303947 137.524124,158.130928 C137.746636,158.231697 137.957423,158.359738 138.152241,158.512474 L139.906637,159.668675 L146.306935,164.085363 L167.316372,178.86161 L167.727897,179.15066 L167.413838,179.15066 L185.01195,160.466454 L190.426753,154.870442 L191.89958,153.367381 C192.202809,153.113016 192.386912,152.9049 192.408571,152.928024 Z" id="Path" fill="#E0E0E0"></path>
                    <path d="M140.816324,197.615188 C140.708028,197.522692 144.379265,191.718563 149.025166,184.654176 C153.671067,177.589789 157.537237,171.935967 157.688852,171.993777 C157.840466,172.051587 154.125911,177.878839 149.48001,184.954788 C144.834108,192.030738 140.93545,197.696122 140.816324,197.615188 Z" id="Path" fill="#E0E0E0"></path>
                    <path d="M175.850102,169.773871 C175.947569,169.669813 180.474344,174.653039 185.954125,180.908085 C191.433906,187.163132 195.787408,192.308226 195.700772,192.470094 C195.614135,192.631962 191.076529,187.579364 185.596748,181.324318 C180.116967,175.069271 175.741806,169.866367 175.850102,169.773871 Z" id="Path" fill="#E0E0E0"></path>
                    <path d="M192.105342,73.0229824 C193.318258,63.6115074 180.86421,55.8533995 171.529089,55.0556209 C167.067291,54.6625126 162.432219,55.3909192 158.208673,53.818486 C149.046825,50.4192555 145.386418,37.78198 136.451992,33.758401 C129.770125,30.7522787 122.070275,33.4231027 115.59417,36.9032673 C109.118065,40.3834319 102.717767,44.7654332 95.4835897,45.2625996 C89.1807585,45.6903939 82.3472765,43.2045621 76.8458363,46.4881725 C72.7414153,48.9277563 70.5863235,53.9803541 66.8067907,56.9517904 C63.0272579,59.9232266 58.2730605,60.489765 53.6813072,60.7556912 C49.0895539,61.0216174 44.3353565,61.0678654 40.1551282,63.0680929 C35.9749,65.0683204 32.5744034,69.831868 33.3866239,74.6301016 L192.105342,73.0229824 Z" id="Path" fill="#EBEBEB"></path>
                    <path d="M396.925697,428.947857 C397.694599,423.039671 389.886452,418.183627 384.016805,417.674899 C381.222767,417.443659 378.320432,417.894577 375.667178,416.911806 C369.927487,414.772835 367.63161,406.852859 362.032703,404.332341 C357.841646,402.447733 353.022471,404.124225 348.961368,406.309444 C344.900265,408.494664 340.893311,411.23486 336.355706,411.547034 C332.402899,411.81296 328.125204,410.252089 324.67056,412.310127 C322.093113,413.836312 320.750242,417.004302 318.378558,418.877348 C316.006874,420.750393 313.028732,421.085691 310.158887,421.259121 C307.289041,421.432552 304.300069,421.455676 301.679304,422.727497 C299.05854,423.999318 296.892618,426.970754 297.434098,430 L396.925697,428.947857 Z" id="Path" fill="#EBEBEB"></path>
                    <path d="M381.385211,26.5552696 C382.175772,20.3811569 374.031908,15.3169972 367.90235,14.7851448 C364.989186,14.5423426 361.956896,15.0163849 359.184517,13.9873662 C353.195744,11.7558985 350.802401,3.48906228 344.954413,0.852924309 C340.622571,-1.11261716 335.543485,0.633246144 331.309109,2.91096185 C327.074732,5.18867756 322.883675,8.05605571 318.151136,8.37979195 C314.025056,8.66884217 309.552429,7.03859895 305.946169,9.17757055 C303.260427,10.7846898 301.863408,14.0914242 299.383428,16.0338417 C296.903448,17.9762591 293.80618,18.3462434 290.795549,18.5196736 C287.784919,18.6931037 284.687651,18.7277897 281.947761,20.0689827 C279.20787,21.4101757 276.944482,24.48567 277.518451,27.6420984 L381.385211,26.5552696 Z" id="Path" fill="#F5F5F5"></path>
                </g>
                <g id="Sheet" transform="translate(280.277546, 132.000000)">
                    <path d="M67.4008774,53.0338432 L32.5756541,72.4058959 C30.1641428,73.7359659 27.1880651,72.7580712 25.9170972,70.2179935 L0.567097356,19.3150761 C-0.0412186546,18.095628 -0.165799132,16.6709437 0.220767392,15.3544968 C0.607333916,14.0380498 1.47337527,12.9376994 2.62833617,12.2955558 L24.7192045,0.0341859754 L51.0944279,9.15044609 L69.4405326,46.0485089 C70.6887605,48.5736862 69.7790356,51.6892777 67.4008774,53.0338432 Z" id="Path" fill="#E8505B"></path>
                    <path d="M24.7192045,0 L31.8633935,14.3239237 C32.4280941,15.459376 33.3971504,16.3111744 34.5570503,16.691642 C35.7169501,17.0721095 36.9725164,16.9500265 38.04711,16.3522916 L51.0944279,9.11626011 L24.7192045,0 Z" id="Path" fill="#E8505B"></path>
                    <g id="Group" opacity="0.2" transform="translate(32.661989, 9.116260)" fill="#000000">
                        <path d="M0,6.36998675 C1.13013314,8.59262404 3.57136679,9.68722092 5.87075349,9.00230686 L6.35638567,8.86556296 C8.22337161,8.23882008 20.4828862,4.11371237 20.3857598,3.8516199 C20.2886334,3.58952742 18.4756066,0 18.4756066,0 L5.42828861,7.23603146 C5.42828861,7.23603146 2.07203064,8.93393491 0,6.36998675 Z" id="Path"></path>
                    </g>
                    <g id="Group" opacity="0.3" transform="translate(24.719205, 0.000000)" fill="#FFFFFF">
                        <path d="M0,0 L7.14418899,14.3239237 C7.70888953,15.459376 8.6779459,16.3111744 9.83784572,16.691642 C10.9977455,17.0721095 12.2533118,16.9500265 13.3279054,16.3522916 L26.3752234,9.11626011 L0,0 Z" id="Path"></path>
                    </g>
                    <path d="M28.6474293,15.3608983 C28.7337639,15.5432235 25.2048367,17.6969399 20.7586043,20.1697255 C16.3123719,22.642511 12.6215673,24.499949 12.5352327,24.3062285 C12.4488981,24.112508 15.9778253,22.0271635 20.4240577,19.4974013 C24.8702901,16.9676391 28.5503029,15.1785731 28.6474293,15.3608983 Z" id="Path" fill="#FAFAFA"></path>
                    <path d="M43.0868928,17.6855446 C43.1840193,17.8678698 37.3132658,21.309258 29.9964076,25.3773891 C22.6795494,29.4455202 16.6577103,32.5906299 16.5713757,32.4083047 C16.4850411,32.2259795 22.3342109,28.7845913 29.661861,24.7164602 C36.989511,20.6483292 43.0005582,17.5032194 43.0868928,17.6855446 Z" id="Path" fill="#FAFAFA"></path>
                    <path d="M48.8497281,23.1211147 C48.9360627,23.3034399 42.5365097,27.0525019 34.5613501,31.4852834 C26.5861905,35.9180648 20.0247601,39.359453 19.9384255,39.1771278 C19.8520909,38.9948026 26.240852,35.2457407 34.2268035,30.8129592 C42.2127549,26.3801777 48.7526016,22.9387895 48.8497281,23.1211147 Z" id="Path" fill="#FAFAFA"></path>
                    <path d="M52.022525,29.5024968 C52.1196514,29.684822 45.7200984,33.433884 37.734147,37.8666654 C29.7481956,42.2994469 23.2083489,45.7408351 23.1112224,45.5585099 C23.014096,45.3761847 29.4244408,41.6271227 37.3996004,37.1943413 C45.37476,32.7615598 51.9361904,29.3201716 52.022525,29.5024968 Z" id="Path" fill="#FAFAFA"></path>
                    <path d="M55.2061137,35.8838789 C55.2924483,36.0662041 48.8928954,39.815266 40.9177358,44.2480475 C32.9425761,48.680829 26.3811458,52.1222172 26.2948112,51.939892 C26.2084766,51.7575668 32.5972377,48.0199001 40.5831891,43.5757233 C48.5691406,39.1315465 55.0874036,35.7015537 55.2061137,35.8838789 Z" id="Path" fill="#FAFAFA"></path>
                    <path d="M58.3789106,42.2652609 C58.4760371,42.4589815 52.0764841,46.1966481 44.0905327,50.6294296 C36.1045812,55.0622111 29.5647345,58.5035993 29.4676081,58.3212741 C29.3704817,58.1389489 35.7808265,54.4012822 43.7667779,49.9571054 C51.7527293,45.5129286 58.3249515,42.1057264 58.3789106,42.2652609 Z" id="Path" fill="#FAFAFA"></path>
                </g>
                <g id="Stopwatch" transform="translate(203.157677, 196.103414)">
                    <polygon id="Rectangle" fill="#263238" transform="translate(14.823709, 30.443913) rotate(-63.360000) translate(-14.823709, -30.443913) " points="13.0387258 27.7127804 16.7928124 27.5947267 16.6086919 33.1750459 12.8546053 33.2930996"></polygon>
                    <path d="M15.4573544,26.35849 L12.229144,33.3553829 L6.94563963,30.4866569 C7.43205069,27.8861081 8.5459603,25.4717963 10.1738501,23.4897639 L15.4573544,26.35849 Z" id="Path" fill="#455A64"></path>
                    <path d="M12.7564184,32.2008956 C11.7558835,31.9232486 10.7960694,31.4954088 9.90483252,30.9297934 C8.94566347,30.4991418 8.04441623,29.9303858 7.22541787,29.2388776 C8.22647485,29.5312621 9.18853378,29.9624098 10.0877644,30.5216413 C11.0419013,30.9510904 11.9392746,31.5157638 12.7564184,32.2008956 L12.7564184,32.2008956 Z" id="Path" fill="#263238"></path>
                    <path d="M13.3697784,30.871486 C12.3612373,30.5336462 11.3959475,30.0595732 10.4966711,29.4604459 C9.54220468,28.9701995 8.63402578,28.3804587 7.78497434,27.6995612 C8.81254493,27.9837114 9.79283275,28.4401277 10.6903637,29.0522938 C11.6586511,29.5177957 12.5608437,30.1303406 13.3697784,30.871486 L13.3697784,30.871486 Z" id="Path" fill="#263238"></path>
                    <path d="M14.1983524,29.0872783 C13.1762797,28.7486082 12.1995171,28.2663899 11.292963,27.6529152 C10.3284898,27.1575512 9.41579072,26.5515797 8.57050554,25.8453846 C9.60348028,26.1456187 10.5872269,26.6176911 11.4866556,27.2447631 C12.4598822,27.7300562 13.3712974,28.349335 14.1983524,29.0872783 Z" id="Path" fill="#263238"></path>
                    <path d="M14.9408408,27.431347 C13.9382397,27.1438757 12.9782012,26.7041578 12.0892549,26.1252603 C11.1348883,25.6816433 10.2378134,25.1053975 9.42060095,24.4110215 C10.423202,24.6984928 11.3832405,25.1382107 12.2721868,25.7171082 C13.2265534,26.1607252 14.1236283,26.736971 14.9408408,27.431347 Z" id="Path" fill="#263238"></path>
                    <polygon id="Rectangle" fill="#263238" transform="translate(55.273351, 12.795884) rotate(23.630000) translate(-55.273351, -12.795884) " points="53.4059632 9.80502581 56.9720372 9.91319328 57.1407387 15.7867431 53.5746647 15.6785757"></polygon>
                    <path d="M59.0381951,13.2859618 L52.4096031,10.1490215 L54.7769574,4.31827738 C57.2071445,4.70428781 59.4967153,5.79184105 61.4055494,7.46687919 L59.0381951,13.2859618 Z" id="Path" fill="#455A64"></path>
                    <path d="M53.5179553,10.6737884 C53.7272586,9.57571231 54.0710582,8.51288066 54.5402219,7.51352514 C54.8877104,6.45958097 55.3616626,5.45977229 55.9498738,4.53984566 C55.7448067,5.63918924 55.4008101,6.70262981 54.9276072,7.70010895 C54.5801188,8.75405313 54.1061665,9.75386181 53.5179553,10.6737884 Z" id="Path" fill="#263238"></path>
                    <path d="M54.7769574,11.2685243 C55.0338338,10.1584338 55.4207766,9.08854378 55.9283524,8.08493806 C56.3269941,7.0244176 56.8207688,6.00888244 57.4025685,5.05295114 C57.208838,6.18239974 56.8453133,7.26971728 56.3264984,8.27152188 C55.9417356,9.34407627 55.4201477,10.3528911 54.7769574,11.2685243 Z" id="Path" fill="#263238"></path>
                    <path d="M56.4663875,12.073167 C56.724022,10.9487229 57.1184491,9.86638545 57.6393039,8.85459628 C58.0426725,7.78391287 58.5513638,6.76346903 59.1565628,5.81094787 C58.9327195,6.94511682 58.5479361,8.03480848 58.0159285,9.0411801 C57.6160534,10.1168568 57.0956342,11.1351612 56.4663875,12.073167 L56.4663875,12.073167 Z" id="Path" fill="#263238"></path>
                    <path d="M58.0266892,12.8428252 C58.5963401,10.6841726 59.4363178,8.62031888 60.5231719,6.70888246 C60.2998827,7.8107884 59.9377995,8.87417468 59.4471018,9.86914576 C59.0982286,10.9246353 58.6205131,11.9247481 58.0266892,12.8428252 Z" id="Path" fill="#263238"></path>
                    <polygon id="Rectangle" fill="#263238" transform="translate(31.944603, 12.162521) rotate(-22.670000) translate(-31.944603, -12.162521) " points="29.9332629 8.74315301 34.1494399 8.61917351 33.9559421 15.5818895 29.7397652 15.705869"></polygon>
                    <path d="M35.4076948,9.07616456 L27.4985793,12.6562414 L24.7976433,5.65934852 C27.0954785,3.72141672 29.8300513,2.48528875 32.7175195,2.07927165 L35.4076948,9.07616456 Z" id="Path" fill="#E8505B"></path>
                    <path d="M32.8143658,2.06761017 C30.866462,4.65931136 27.8593137,6.03537959 24.7868826,5.74097894 C26.2556696,5.51837065 27.6985096,5.12746533 29.0911631,4.57483012 C30.4063472,3.87587251 31.6536378,3.03594193 32.8143658,2.06761017 Z" id="Path" fill="#263238"></path>
                    <path d="M30.1026691,11.4551081 C29.532511,10.555114 29.0798661,9.57404171 28.7575814,8.5397361 C28.3026884,7.56392746 27.9766754,6.52364407 27.7891182,5.44944174 C28.360476,6.35042139 28.8165727,7.33112966 29.1449666,8.36481378 C29.5941942,9.34211258 29.9164842,10.3820715 30.1026691,11.4551081 L30.1026691,11.4551081 Z" id="Path" fill="#263238"></path>
                    <path d="M31.6306887,10.8137263 C31.0530609,9.91258827 30.5965466,8.92705571 30.2748403,7.88669277 C29.8201791,6.90668235 29.4942019,5.86258796 29.3063771,4.78473691 C29.8791776,5.68897398 30.335342,6.6737511 30.6622255,7.71177044 C31.1111518,8.6943685 31.4368573,9.73759281 31.6306887,10.8137263 L31.6306887,10.8137263 Z" id="Path" fill="#263238"></path>
                    <path d="M33.1264261,10.1023755 C32.5487984,9.20123749 32.0922841,8.21570493 31.7705778,7.17534199 C31.3159166,6.19533157 30.9899394,5.15123719 30.8021146,4.07338613 C31.3749151,4.9776232 31.8310795,5.96240032 32.157963,7.00041966 C32.6068893,7.98301773 32.9325948,9.02624204 33.1264261,10.1023755 Z" id="Path" fill="#263238"></path>
                    <path d="M34.3746675,9.54262409 C33.7708222,8.55476105 33.2828363,7.48925526 32.9219728,6.3706993 C32.4338429,5.30901623 32.0722536,4.18438291 31.8459027,3.0238522 C32.4540656,4.00728036 32.9389535,5.07392272 33.2878367,6.19577698 C33.7833311,7.2552147 34.1487125,8.3803906 34.3746675,9.54262409 Z" id="Path" fill="#263238"></path>
                    <path d="M28.6714958,12.073167 C28.0676505,11.085304 27.5796645,10.0197982 27.2188011,8.90124224 C26.7306712,7.83955916 26.3690818,6.71492584 26.1427309,5.55439513 C27.2272655,7.60486157 28.0696186,9.79495913 28.6499744,12.073167 L28.6714958,12.073167 Z" id="Path" fill="#263238"></path>
                    <ellipse id="Oval" fill="#E8505B" transform="translate(43.619869, 43.896586) rotate(-56.450000) translate(-43.619869, -43.896586) " cx="43.619869" cy="43.8965856" rx="32.0628716" ry="31.0772008"></ellipse>
                    <ellipse id="Oval" fill="#FAFAFA" transform="translate(43.513965, 43.649235) rotate(-68.150000) translate(-43.513965, -43.649235) " cx="43.5139649" cy="43.6492353" rx="27.2713677" ry="25.7330929"></ellipse>
                    <path d="M66.9903535,33.0521843 C66.9192785,32.9238784 66.854621,32.7915238 66.7966608,32.6556937 L66.2586258,31.4895448 L65.8604798,30.6265947 C65.70983,30.3117345 65.5053767,29.9852129 65.3009233,29.6237067 C64.8530429,28.7909356 64.3533055,27.9922161 63.8051858,27.2331017 C62.3378719,25.1049358 60.5819495,23.2295452 58.5970064,21.6705718 C55.9868909,19.5869863 53.0314378,18.0667183 49.8915989,17.1925603 C45.0384106,15.7897193 39.9053288,16.0298098 35.1817201,17.8805881 C34.6652064,18.0904949 34.10565,18.2654172 33.6321791,18.5103085 L32.1256809,19.2916282 C31.8781848,19.4315661 31.6091672,19.5481809 31.3724318,19.6997803 L30.6407041,20.1779013 C30.1564726,20.504423 29.6614803,20.8192832 29.1772487,21.1691278 C28.2262084,21.9059127 27.3170696,22.7042325 26.4547913,23.5597329 C25.5730364,24.4399807 24.746228,25.3827508 23.97983,26.381813 C23.5924447,26.8949185 23.258863,27.4430084 22.9037598,27.9794369 C22.5318286,28.5112275 22.1973047,29.0725599 21.9030146,29.6586912 C21.2624341,30.8311511 20.6909745,32.0463752 20.1920631,33.2970755 C19.7278344,34.5857102 19.3431875,35.9063716 19.040668,37.25032 C18.408743,40.0128028 18.1907474,42.86742 18.3950259,45.7048989 C18.616676,48.6241187 19.2443019,51.4902475 20.2566273,54.2061238 C21.3414832,56.8974783 22.7923524,59.3974711 24.5609078,61.6228303 C26.2798214,63.7754967 28.3072379,65.614316 30.5653792,67.0687453 C31.6617332,67.781267 32.8013928,68.412434 33.9765216,68.9579063 C35.1398435,69.4612712 36.3334581,69.8781629 37.5490744,70.2056856 C38.1457529,70.3874537 38.7534176,70.5238363 39.367633,70.6138377 C39.9702322,70.7071296 40.5728315,70.8354059 41.1754308,70.8937134 C42.3704255,71.0079457 43.5711433,71.035217 44.7695051,70.9753438 C45.9389699,70.9194094 47.1037012,70.7791614 48.2559723,70.5555302 C48.8262895,70.4389153 49.3320425,70.263993 49.9346417,70.1240552 L50.752455,69.9024869 C51.0322333,69.8208565 51.2904901,69.7042416 51.5595077,69.5992882 L53.1305701,68.9928908 C53.6470837,68.7713225 54.1313153,68.4914468 54.6263076,68.2465556 C55.5971472,67.7489488 56.5355096,67.1801007 57.4348506,66.5439783 C63.4903884,62.220159 67.5542732,55.3000745 68.6044587,47.5240911 C68.9779274,44.9002233 68.9779274,42.2298083 68.6044587,39.6059406 C68.4976615,38.6449 68.3250135,37.6938056 68.087945,36.7605375 C67.9910987,36.3523854 67.9157738,35.9792178 67.8296882,35.5943887 L67.5391492,34.6847926 L67.1410033,33.4486748 C67.0549177,33.1687991 67.0226356,33.0171998 67.0226356,33.0171998 C67.0226356,33.0171998 67.0871998,33.1571376 67.1840461,33.4253519 L67.6144741,34.6614696 C67.7113205,34.9296838 67.8081668,35.2328825 67.9265345,35.5710657 C68.0449022,35.9092489 68.1094664,36.2824165 68.2063127,36.7372145 C68.454022,37.6742795 68.6409963,38.6289603 68.7658692,39.5942791 C69.1650982,42.233742 69.1868749,44.9240905 68.8304334,47.570737 C67.8171964,55.4478717 63.7343654,62.4754402 57.6177825,66.8705 C56.7051908,67.5132996 55.7563973,68.0936195 54.7769574,68.6080617 C54.2712044,68.852953 53.7762121,69.1444902 53.2596985,69.3660584 L51.6671147,69.9957788 C51.3980971,70.0890707 51.1290796,70.2173471 50.8493014,70.2989775 L50.0099666,70.5205458 C49.4504102,70.6721451 48.9338965,70.8470674 48.3205365,70.9636823 C47.1505626,71.1944399 45.9679749,71.3424647 44.7802658,71.4068189 C43.5606258,71.4706464 42.3384298,71.4472727 41.1216273,71.3368499 C40.519028,71.266881 39.905668,71.1502661 39.2815473,71.0569742 C38.6635503,70.9630454 38.05231,70.8227708 37.4522281,70.6371606 C34.9379989,70.0057154 32.5355572,68.9343597 30.3394045,67.4652359 C28.0439915,65.991176 25.9836276,64.1245702 24.2380868,61.9376905 C20.5814496,57.426377 18.3892556,51.7410709 17.99688,45.7515449 C17.7943105,42.8664778 18.0195525,39.9648712 18.6640435,37.1570281 C19.243365,34.4330386 20.2283159,31.8295234 21.5801935,29.4487844 C21.8780162,28.854912 22.2161141,28.285822 22.5916995,27.7462071 C22.968324,27.1981172 23.3126665,26.6383658 23.6677696,26.1252603 C25.2208335,24.1304395 26.9995912,22.3555828 28.9620347,20.8426061 C29.4462663,20.4811 29.9627799,20.1779013 30.4470115,19.8397181 L31.1894999,19.3615971 C31.436996,19.1983363 31.7060136,19.0817214 31.9535097,18.9417836 L33.49229,18.1604638 C34.0088037,17.9155726 34.5683601,17.7406503 35.0525917,17.5307435 C36.0774029,17.1275707 37.1274414,16.8041157 38.1947165,16.56284 C45.3749341,14.9310122 52.8560586,16.7189667 58.7368955,21.4723265 C60.7265309,23.0624378 62.4793782,24.973816 63.9343143,27.1398097 C64.4833165,27.9095528 64.9762099,28.72443 65.4085304,29.5770608 C65.602223,29.9385669 65.8066763,30.2650886 65.9573261,30.5799488 L66.3339507,31.4545604 C66.5491647,31.9676659 66.7105752,32.3641564 66.8397036,32.6207092 C66.9688321,32.8772619 66.9903535,33.0521843 66.9903535,33.0521843 Z" id="Path" fill="#263238"></path>
                    <path d="M63.4178006,34.2066716 C62.1603428,34.9151408 60.8160647,35.4256128 59.4255804,35.722665 C60.5304863,34.7572408 61.7593692,33.9715455 63.0734582,33.3903674 C65.1610342,32.282526 66.93655,31.6061597 67.0549177,31.8743739 C67.1732854,32.1425882 65.5376588,33.2037836 63.4178006,34.2066716 Z" id="Path" fill="#263238"></path>
                    <path d="M63.8267073,52.0953944 C62.4746536,51.6497499 61.1909624,50.9895431 60.017419,50.1362644 C61.425345,50.3084176 62.8027403,50.7012329 64.1064855,51.3024132 C66.2586258,52.1070559 68.0126201,52.9816675 67.9157738,53.2615433 C67.8189275,53.541419 65.9788475,53.0049905 63.8267073,52.0953944 Z" id="Path" fill="#263238"></path>
                    <path d="M52.484928,65.1212767 C51.8100521,63.7764599 51.3240597,62.3300682 51.042994,60.8298491 C51.9395133,62.0101515 52.6651893,63.3313421 53.1951343,64.7481091 C54.2712044,66.9871148 54.8845644,68.9229219 54.6370683,69.0511983 C54.3895721,69.1794746 53.4318697,67.4185899 52.484928,65.1212767 Z" id="Path" fill="#263238"></path>
                    <path d="M35.978012,65.7509971 C36.3721921,64.2796414 36.9670098,62.8803654 37.742767,61.5995073 C37.6056318,63.1245146 37.2686628,64.6205621 36.7420218,66.0425343 C36.0210548,68.3748319 35.2247629,70.287316 34.9665061,70.1940241 C34.7082493,70.1007322 35.1601987,68.1066177 35.978012,65.7509971 Z" id="Path" fill="#263238"></path>
                    <path d="M23.8399408,53.6580339 C25.0743123,52.9123743 26.4058185,52.3737188 27.7891182,52.06041 C26.6994272,53.0403704 25.485398,53.8454736 24.1842833,54.4510151 C22.1289893,55.6171639 20.3534736,56.3168532 20.2351059,56.0603004 C20.1167381,55.8037477 21.7308434,54.6725833 23.8399408,53.6580339 Z" id="Path" fill="#263238"></path>
                    <path d="M23.075931,35.7343265 C24.4367519,36.1559061 25.7342557,36.7882668 26.9282621,37.6118261 C25.5183041,37.4801797 24.1335655,37.126622 22.8176742,36.5622922 C20.6009697,35.8159569 18.8792575,34.9763298 18.9653431,34.6964541 C19.0514287,34.4165784 20.8915086,34.8830379 23.075931,35.7343265 Z" id="Path" fill="#263238"></path>
                    <path d="M34.1379321,22.4518915 C34.836,23.7811408 35.3473699,25.2157128 35.655191,26.7083347 C34.7381202,25.5435992 33.9839868,24.2391224 33.4169651,22.8367206 C32.3408949,20.6210379 31.6522101,18.7085538 31.8889455,18.5802774 C32.1256809,18.4520011 33.1371868,20.1779013 34.1379321,22.4518915 Z" id="Path" fill="#263238"></path>
                    <path d="M50.6233266,21.4256805 C50.2546723,22.9059059 49.6891892,24.3201061 48.9446572,25.6238163 C49.0427099,24.0939948 49.3509954,22.588614 49.8593168,21.1574663 C50.5264803,18.7551997 51.2797294,16.8777002 51.5379862,16.9593306 C51.7962431,17.040961 51.3873364,19.0583984 50.6233266,21.4256805 Z" id="Path" fill="#263238"></path>
                    <path d="M63.0088939,33.262091 C61.7877817,34.0437515 60.4683758,34.6290491 59.0919986,34.9996528 C60.159227,33.9939546 61.3553406,33.1612178 62.6430301,32.5274173 C64.6768027,31.3612685 66.430797,30.5682873 66.5599254,30.82484 C66.6890538,31.0813927 65.09647,32.1659112 63.0088939,33.262091 Z" id="Path" fill="#263238"></path>
                    <path d="M23.8076587,20.2828547 C23.5033048,20.6962474 23.1724934,21.0859254 22.8176742,21.4490035 C21.9138311,22.4761494 21.0693062,23.5627306 20.2889094,24.7025587 C15.0293763,32.2824235 13.1741116,42.0144392 15.2313797,51.2324443 C15.5283401,52.6135545 15.90572,53.9728954 16.3612534,55.3023037 C16.5500255,55.7809846 16.711735,56.2716745 16.8454849,56.7716512 C16.7692846,56.6651882 16.7076713,56.5473571 16.662553,56.4218066 C16.554946,56.1769153 16.3827748,55.8387321 16.2106035,55.3606111 C15.688908,54.0504292 15.2643119,52.6973072 14.9408408,51.3140747 C12.6963334,41.9988609 14.5861474,32.0821724 20.0521739,24.4926519 C20.8642531,23.3616689 21.7526569,22.2975516 22.7100672,21.3090657 C23.0328882,20.959221 23.3234272,20.7143298 23.5063591,20.5394074 C23.689291,20.3644851 23.796898,20.2711932 23.8076587,20.2828547 Z" id="Path" fill="#FFFFFF"></path>
                    <path d="M30.9742859,15.1751229 C30.1841399,15.8517338 29.3291262,16.434272 28.4239996,16.9126846 C27.5903845,17.5292105 26.6951539,18.0416799 25.7553457,18.4403396 C26.4688155,17.6556687 27.2979924,17.0053749 28.2087856,16.516194 C29.0526925,15.9003364 29.9882132,15.4466753 30.9742859,15.1751229 L30.9742859,15.1751229 Z" id="Path" fill="#FFFFFF"></path>
                    <g id="Group" opacity="0.4" transform="translate(30.662226, 22.953335)" fill="#000000">
                        <path d="M0,44.5002389 C0,44.5002389 20.1763151,59.7884499 34.9399975,40.6053018 C50.3385612,20.5708651 29.6457324,3.55271368e-15 29.6457324,3.55271368e-15 C29.6457324,3.55271368e-15 46.7337262,16.1278381 32.6372074,38.0514359 C29.1292187,43.5206739 23.9317999,45.8762945 19.7889299,47.2406886 C9.2219211,50.7391351 0,44.5002389 0,44.5002389 Z" id="Path"></path>
                    </g>
                    <path d="M44.8555907,27.1981172 C46.414339,30.8748276 47.7514707,34.6571965 48.8585716,38.5214222 C49.3053524,39.9007241 49.5698169,41.3415911 49.6441028,42.8011884 C49.7056421,44.2817859 49.2306495,45.7297946 48.3205365,46.8360633 C47.3802883,47.947839 45.8884472,48.2815234 44.6188552,47.6640289 L44.8555907,27.1981172 Z" id="Path" fill="#E0E0E0"></path>
                    <polygon id="Path" fill="#E8505B" points="42.2407402 41.8915923 44.7695051 22.4752145 46.394371 42.3697133 44.1023416 44.4104737"></polygon>
                    <g id="Group" opacity="0.4" transform="translate(44.575812, 22.475214)" fill="#000000">
                        <polygon id="Path" points="0.241636972 0 0 18.7633345 2.26870268 19.8944988"></polygon>
                    </g>
                    <path d="M46.8355597,43.1626945 C47.2998216,44.3635935 47.0507043,45.7493287 46.2044076,46.6735292 C45.358111,47.5977297 44.0813641,47.8783185 42.9697007,47.384416 C41.8580373,46.8905135 41.1304665,45.7194236 41.1263435,44.4173967 C41.1222553,43.1153698 41.8424238,41.9389186 42.9509465,41.4367943 C44.4634353,40.7516865 46.2021123,41.5241658 46.8355597,43.1626945 Z" id="Path" fill="#FAFAFA"></path>
                    <path d="M46.8355597,43.1626945 C46.8355597,43.1626945 46.7064313,42.9178032 46.4051317,42.5329741 C46.0015913,41.9880608 45.4406566,41.6060752 44.8125479,41.4484557 C43.751388,41.1596165 42.6322353,41.5676328 41.9479442,42.4928217 C41.263653,43.4180107 41.139804,44.6905825 41.6309379,45.7501197 C42.1220717,46.8096569 43.1380561,47.4617143 44.23147,47.4191377 C45.1790865,47.3730699 46.042963,46.8174792 46.5342601,45.9381287 C46.8734899,45.3418762 47.021054,44.6407026 46.9539275,43.9440142 C46.9001239,43.4425702 46.8032776,43.174356 46.8355597,43.1626945 C46.9900722,43.3834658 47.0867312,43.6453418 47.115338,43.9206912 C47.2474991,44.6661172 47.1332075,45.4381723 46.7925169,46.1013895 C46.2741212,47.1149887 45.310158,47.7673486 44.2422307,47.8272898 C42.9077409,47.90148 41.6741404,47.0590324 41.1600287,45.7223996 C40.6459171,44.3857669 40.9621707,42.8432147 41.9502013,41.8682693 C42.7469672,41.0909105 43.8553213,40.8093257 44.8878728,41.1219341 C45.5628896,41.3302303 46.149234,41.7882334 46.5450208,42.4163593 C46.700279,42.6334158 46.8004409,42.8907114 46.8355597,43.1626945 Z" id="Path" fill="#263238"></path>
                    <path d="M46.1361141,43.4892162 C46.4853436,44.3852525 46.3015128,45.4210806 45.6704997,46.1128064 C45.0394865,46.8045321 44.0858422,47.0156207 43.2550681,46.6474606 C42.424294,46.2793005 41.8803708,45.4045602 41.8773836,44.4318806 C41.874421,43.4592011 42.4129816,42.5805726 43.2414855,42.2064525 C44.3676911,41.6979018 45.661398,42.271212 46.1361141,43.4892162 Z" id="Path" fill="#455A64"></path>
                </g>
                <g id="Video" transform="translate(154.277546, 286.000000)" fill="#E8505B">
                    <path d="M52.7806451,36.2208759 C53.3009262,36.038474 53.7647598,35.7112636 54.1230842,35.2738551 C54.545628,34.7382789 54.779001,34.0649214 54.7834776,33.3684036 C54.7703186,32.9224579 54.6974236,32.4807103 54.5669551,32.0562663 C54.4586939,31.5884608 54.3396066,31.0864257 54.2096931,30.5615708 C53.2136899,26.305682 51.7738158,20.1899813 49.9983318,12.6594543 C49.565287,10.7654126 49.1033724,8.78389517 48.6125883,6.71490188 C48.3744136,5.68801184 48.1362389,4.62689212 47.8872381,3.55436251 C47.7867435,3.02462782 47.6418264,2.50534129 47.4541933,2.00261755 C47.2333649,1.53277413 46.8920806,1.13751365 46.4690162,0.861628607 C46.0360991,0.586777554 45.5333047,0.459281333 45.029142,0.496512145 C44.4960948,0.59125427 43.9684199,0.716954511 43.4485283,0.873038497 L40.1357351,1.78582965 L33.2286695,3.66846141 L2.4391797,12.0319104 C1.16398082,12.4139198 0.366161798,13.7464778 0.58791291,15.1239904 C0.912696558,16.5502266 1.23748021,17.953643 1.55143773,19.3570594 C2.20100503,22.1714988 2.83613749,24.9402986 3.45683513,27.6634589 C4.71266523,33.117386 5.91436473,38.3659352 7.06193362,43.3748766 L7.48415236,45.2460985 C7.59376074,45.8203832 7.86104718,46.3480731 8.25280699,46.7636138 C8.64881551,47.1553524 9.15338109,47.4032465 9.69268116,47.4710269 C10.2442208,47.49722 10.7954252,47.4120174 11.3165994,47.2200094 L17.8122724,45.4514765 L29.5261359,42.3137569 L46.5014946,37.7498011 L51.1242485,36.6088122 L52.325948,36.3121551 L52.7373406,36.2208759 L52.3367741,36.3692045 L51.1459007,36.7115012 L46.5556252,38.0236385 L29.623571,42.713103 L17.9205336,45.9306919 L11.4248606,47.7106346 C10.8484113,47.9250192 10.2385157,48.0218238 9.62772443,47.9958818 C8.98055448,47.9168179 8.37585829,47.6162034 7.9063711,47.1401401 C7.44201807,46.6599246 7.12520375,46.0438039 6.99697689,45.3716073 C6.85623731,44.7554732 6.70467161,44.1393392 6.56393203,43.5117953 L2.93718129,27.8117874 L1.02095777,19.5053879 C0.696174126,18.0905616 0.371390478,16.6643255 0.0466068308,15.2266794 C-0.228697307,13.5605205 0.74090962,11.9462301 2.287614,11.4956456 L33.0771038,3.15501638 L39.9949955,1.28379452 L43.3077887,0.393823141 C43.8568837,0.219399851 44.4178849,0.0897059476 44.9858375,0.00588689998 C45.5823056,-0.0330985273 46.1757134,0.122257012 46.6855386,0.450872588 C47.2039068,0.756071501 47.6284445,1.21142024 47.9088904,1.76300987 C48.1059075,2.29854117 48.2545236,2.85247574 48.3527613,3.41744384 C48.6017621,4.48997345 48.8399368,5.55109316 49.0781115,6.57798321 C49.5472434,8.64697649 49.9983318,10.628494 50.4313767,12.5225356 C52.1310778,20.0872923 53.5059952,26.2144029 54.46952,30.4702917 C54.5886074,31.0065565 54.6968686,31.5085916 54.8051298,31.9763971 C54.9256213,32.4181815 54.9911266,32.8745957 55,33.3341739 C54.9774923,34.0652546 54.7176284,34.7660556 54.2638237,35.3194947 C53.9818695,35.6470375 53.6342346,35.9042831 53.2461683,36.0725474 C53.098821,36.1460173 52.9419336,36.196006 52.7806451,36.2208759 L52.7806451,36.2208759 Z" id="Path"></path>
                    <polygon id="Path" points="28.6167417 20.4638186 35.2206759 22.5746482 30.2731383 27.754738 25.3256007 32.9462377 23.6692041 25.6553183 22.0236336 18.364399"></polygon>
                </g>
                <g id="Photos" transform="translate(82.276248, 225.000000)">
                    <polygon id="Rectangle" fill="#EBEBEB" transform="translate(21.573428, 45.697956) rotate(-14.452428) translate(-21.573428, -45.697956) " points="3.47009732 30.8193013 39.9341546 30.4972885 39.6767587 60.5766112 3.21270144 60.898624"></polygon>
                    <path d="M35.7385883,25.2516133 L35.5627076,25.2516133 L35.0790355,25.39975 L33.1663324,25.9239261 L25.977207,27.8838889 L0.617402209,34.7209683 L0.683357488,34.6070169 C2.88186679,43.2673175 5.3661823,53.2038729 8.00439347,63.7215801 L8.00439347,63.7215801 L7.87248291,63.6532093 L43.0486318,54.1838543 L42.9826765,54.2978056 C40.7841672,45.5235537 38.9923821,38.2420642 37.7282393,33.1598351 C37.0906716,30.6187206 36.6289846,28.6017822 36.2662306,27.2457614 L35.8814914,25.6846283 C35.7935511,25.3313792 35.7605734,25.1490571 35.7605734,25.1490571 L35.892484,25.6618381 C35.9914169,26.0150872 36.1233275,26.5392632 36.2882157,27.2001809 L37.7941945,33.0800692 C39.0803225,38.1736934 40.9270703,45.4665781 43.1585572,54.2522251 L43.1585572,54.331991 L43.0706169,54.331991 L7.894468,63.8355314 L7.79553508,63.8355314 L7.79553508,63.7215801 L7.79553508,63.7215801 L0.485491651,34.5956218 L0.485491651,34.5044608 L0.573432023,34.5044608 L26.0211772,27.6673813 L33.2103026,25.7529991 L35.1010206,25.2516133 L35.5846927,25.1262668 L35.7385883,25.2516133 Z" id="Path" fill="#263238"></path>
                    <polygon id="Rectangle" fill="#E8505B" transform="translate(21.538527, 45.704736) rotate(-14.452428) translate(-21.538527, -45.704736) " points="4.70475062 32.7053624 38.5973414 32.406058 38.3723027 58.7041103 4.47971197 59.0034147"></polygon>
                    <polygon id="Path" fill="#E8505B" points="8.65295371 61.6932465 16.0949077 42.788722 25.6474306 50.7881049 29.1210753 44.2017184 41.3337945 52.8734141"></polygon>
                    <path d="M25.6804083,38.139508 C26.0423446,39.6067101 25.1951611,41.1019455 23.782725,41.4888218 C22.370289,41.8756981 20.9211717,41.0094358 20.5367155,39.548402 C20.1522593,38.0873683 20.976338,36.5783211 22.3826443,36.1681501 C23.0723275,35.9702344 23.8097783,36.0674659 24.4297084,36.4380516 C25.0496386,36.8086373 25.5002007,37.4215836 25.6804083,38.139508 Z" id="Path" fill="#E8505B"></path>
                    <g id="Group" opacity="0.2" transform="translate(8.652954, 42.788722)" fill="#000000">
                        <polygon id="Path" points="0 18.9045246 7.44195399 0 16.9944769 7.99938291 20.4681216 1.41299641 32.6808408 10.0846921"></polygon>
                    </g>
                    <g id="Group" opacity="0.2" transform="translate(20.442298, 36.067776)" fill="#000000">
                        <path d="M5.23810983,2.07173159 C5.60004611,3.53893372 4.75286268,5.03416914 3.3404266,5.42104544 C1.92799052,5.80792173 0.478873294,4.9416594 0.0944170975,3.48062564 C-0.290039099,2.01959188 0.534039568,0.510544745 1.94034587,0.100373693 C2.63002907,-0.0975419899 3.36747987,-0.000310508677 3.98741001,0.370275195 C4.60734015,0.740860899 5.05790228,1.35380719 5.23810983,2.07173159 Z" id="Path"></path>
                    </g>
                    <polygon id="Rectangle" fill="#EBEBEB" transform="translate(46.968355, 24.753564) rotate(-4.030000) translate(-46.968355, -24.753564) " points="19.582315 2.08899021 74.4670334 1.94809957 74.3543942 47.418137 19.4696759 47.5590277"></polygon>
                    <path d="M72.8054552,0.0341853971 L72.5416341,0.0341853971 L71.7721558,0.0911610588 L68.7931757,0.330458838 L57.5917708,1.18509376 L18.0186033,4.14782818 L18.1505139,3.98829632 C19.0738878,17.4915282 20.1291723,32.977513 21.250412,49.3523182 L21.250412,49.3523182 L21.0855238,49.2041815 L75.8174129,45.2272803 L75.6964949,45.375417 C74.7951061,31.7012582 74.0476129,20.3858918 73.4979856,12.4662748 C73.245157,8.51216387 73.0472912,5.40129273 72.9043881,3.27040298 C72.8384328,2.22205081 72.7944626,1.40160128 72.761485,0.843239794 C72.7285074,0.284878309 72.761485,1.77635684e-14 72.761485,1.77635684e-14 L72.8274403,0.820449529 C72.8274403,1.36741588 72.9263732,2.16507515 73.003321,3.21342732 C73.1572167,5.33292194 73.3770676,8.43239794 73.6628738,12.3295332 C74.2234937,20.3061258 75.014957,31.6214923 75.9713086,45.3070462 L75.9713086,45.4437878 L75.839398,45.4437878 L21.1075089,49.4776647 L20.9426207,49.4776647 L20.9426207,49.3067377 L20.9426207,49.3067377 C19.8433661,32.9319325 18.7441114,17.4003671 17.8757002,3.94271579 L17.8757002,3.79457907 L18.0186033,3.79457907 L57.5917708,0.979981382 L68.7601981,0.205112382 L71.7062005,1.77635684e-14 L72.4646862,1.77635684e-14 L72.8054552,0.0341853971 Z" id="Path" fill="#263238"></path>
                    <polygon id="Rectangle" fill="#E8505B" transform="translate(46.929590, 24.739288) rotate(-4.030000) translate(-46.929590, -24.739288) " points="21.4659927 4.93513704 72.4916293 4.80415277 72.3931865 44.5434388 21.3675498 44.6744231"></polygon>
                    <polygon id="Path" fill="#E8505B" points="22.8443313 46.4237692 38.9374194 20.4770528 50.9962429 35.0970076 57.9105547 26.3113606 73.7288291 42.708956"></polygon>
                    <path d="M54.4259174,16.3178295 C54.5418829,18.0005546 53.6685022,19.5899764 52.213095,20.3448345 C50.7576878,21.0996925 49.006927,20.8713016 47.7773171,19.7661768 C46.5477072,18.6610519 46.0814457,16.8968706 46.5959834,15.2963962 C47.1105212,13.6959217 48.5045093,12.5744013 50.1278317,12.4548797 C52.3435965,12.2917378 54.2676296,14.0209829 54.4259174,16.3178295 Z" id="Path" fill="#E8505B"></path>
                    <g id="Group" opacity="0.2" transform="translate(22.844331, 20.477053)" fill="#000000">
                        <polygon id="Path" points="0 25.9467164 16.0930881 0 28.1519116 14.6199548 35.0662234 5.83430776 50.8844978 22.2319032"></polygon>
                    </g>
                    <g id="Group" opacity="0.2" transform="translate(46.389428, 12.444223)" fill="#000000">
                        <path d="M8.0364893,3.87360674 C8.15245479,5.55633178 7.27907413,7.14575362 5.82366691,7.90061167 C4.36825969,8.65546973 2.61749893,8.42707885 1.38788902,7.32195398 C0.15827912,6.2168291 -0.30798243,4.45264778 0.206555333,2.85217337 C0.721093095,1.25169896 2.11508115,0.130178515 3.73840362,0.0106568699 C5.95416835,-0.152484989 7.87820145,1.57676006 8.0364893,3.87360674 Z" id="Path"></path>
                    </g>
                </g>
                <g id="Light_Bulb" transform="translate(21.277546, 284.000000)">
                    <path d="M31.294758,11.8547987 C28.9728198,3.89936472 21.4253584,-1.06597411 13.5715897,0.195045791 C5.7178211,1.4560657 -0.0614686871,8.56117962 0.000493520509,16.8794808 C0.0624557281,25.197782 5.94688674,32.2076662 13.8184854,33.3402947 L15.0174139,37.3773063 L28.4000478,33.0123582 C28.4000478,33.0123582 27.8167853,30.750727 27.244324,28.6926427 C31.4829736,24.3069656 33.0436408,17.8191988 31.294758,11.8547987 L31.294758,11.8547987 Z" id="Path" fill="#E8505B"></path>
                    <path d="M23.5503282,34.5389592 L23.5503282,34.3467205 C23.5503282,34.1997145 23.5503282,33.9961677 23.4423166,33.7473883 C23.3559073,33.215905 23.2154923,32.4469504 23.0642761,31.4857571 C22.9130599,30.5245639 22.7510425,29.224126 22.643031,27.8106065 C22.5045585,26.1804402 22.5262746,24.5396985 22.7078379,22.9141751 C22.8044223,21.9638601 22.9852202,21.0250094 23.2478958,20.1097524 C23.3867654,19.6078696 23.6472208,19.1521027 24.0039768,18.7866982 C24.3970214,18.4089809 24.9400662,18.2531602 25.462133,18.3682965 C25.7356886,18.4298263 25.9757642,18.6000919 26.1318048,18.843239 C26.2957109,19.0860532 26.3616779,19.3866822 26.3154244,19.6800425 C26.2106706,20.2587794 25.9023178,20.7753021 25.4513319,21.1274865 C24.4924709,21.8529071 23.2943342,22.1419635 22.1289354,21.9290313 C20.9635366,21.716099 19.9297472,21.0192431 19.2622687,19.9966709 C18.8871434,19.4708066 18.6657757,18.842309 18.6250004,18.187366 C18.5731001,17.4609485 19.0296028,16.8014043 19.7051162,16.6268405 C20.0505178,16.5608245 20.4050161,16.6746965 20.655618,16.9321607 C20.8962323,17.1874281 21.0417989,17.524311 21.066062,17.8820458 C21.0677679,18.5760696 20.8598373,19.2528898 20.4719983,19.8157404 C19.7510656,21.0206351 18.5712777,21.8440792 17.2316511,22.0773715 C15.8829371,22.2821527 14.5237607,21.7839003 13.5916611,20.7430092 C13.1219146,20.2366745 12.8752751,19.5480968 12.9111882,18.843239 C12.9350653,18.4796711 13.1035595,18.1432744 13.375638,17.9159702 C13.6508211,17.7010323 14.0019116,17.6225622 14.336941,17.7011153 C14.6655351,17.7580434 14.9661762,17.9293646 15.1902324,18.187366 C15.408819,18.4341869 15.5810398,18.7219072 15.6978868,19.0354776 C15.9295478,19.638388 16.0363124,20.2859186 16.0111204,20.9352478 C15.9899983,22.2047772 15.5071279,23.4180637 14.6609757,24.3276945 C13.8532285,25.1823321 12.7809561,25.7075504 11.6366517,25.8090629 C11.0826871,25.8977226 10.5163048,25.790272 10.0272792,25.5037427 C9.5358688,25.1887445 9.3130177,24.5634695 9.48722136,23.9884499 C9.60370969,23.7249434 9.81255119,23.5184459 10.0704839,23.4117339 C10.3185509,23.3145974 10.5857839,23.2835111 10.8481672,23.3212687 C11.3360903,23.4376182 11.7753513,23.7151317 12.1011014,24.1128396 C12.7491709,24.8591779 13.3000299,25.594208 13.8508889,26.3066218 C16.0111204,29.1223526 17.6961009,31.4970653 18.8194213,33.148056 C19.3810815,33.9735514 19.8131277,34.6181163 20.0939578,35.0591344 L20.4287937,35.5680014 L20.5260041,35.7376237 C20.4825844,35.688117 20.4428632,35.6351897 20.4071914,35.5793095 L20.0615544,35.0817507 C19.759122,34.6520407 19.3270757,34.0074759 18.7546143,33.1932887 C17.6096917,31.5649142 15.9355123,29.2015097 13.7428773,26.4083952 C13.1920183,25.7072895 12.6627616,24.9609513 11.9930899,24.2372293 C11.6910113,23.8602783 11.2761281,23.6012578 10.8157637,23.5021992 C10.3469406,23.3960792 9.86743295,23.6263614 9.63843756,24.067607 C9.49491453,24.5665548 9.69563479,25.1035842 10.1244896,25.3680449 C10.5793726,25.6276547 11.1020856,25.726794 11.6150494,25.6507488 C12.7196548,25.5429574 13.7524498,25.0303536 14.5313618,24.2033048 C15.7756303,22.8561282 16.1629945,20.8768834 15.5250683,19.1259429 C15.3420143,18.5310464 14.8818946,18.074907 14.3045375,17.9159702 C14.0222482,17.8467929 13.7251988,17.913138 13.4944507,18.0969007 C13.2695172,18.2913469 13.1292682,18.5727753 13.1056091,18.8771635 C13.0754176,19.528869 13.3064078,20.1641923 13.7428773,20.6299276 C14.6254169,21.6223541 15.9181961,22.0960656 17.1992477,21.896441 C18.4801912,21.6743026 19.6108665,20.8933575 20.309981,19.7478915 C20.6744595,19.2217291 20.8710159,18.5885518 20.8716412,17.9385865 C20.8486595,17.6315663 20.7223508,17.343048 20.515203,17.1243993 C20.3206363,16.9032196 20.0298056,16.8045845 19.7483208,16.8643117 C19.4654355,16.9313986 19.2202097,17.1147818 19.0678479,17.3731787 C18.9116248,17.6293533 18.8325947,17.9287925 18.8410236,18.2325986 C18.8902224,18.8488548 19.0993812,19.4393095 19.4458884,19.9401301 C20.1050874,20.9405755 21.1211143,21.6211922 22.2649905,21.8285921 C23.3567354,22.0145646 24.4744899,21.7423257 25.3757238,21.0709457 C25.7947833,20.747034 26.0835846,20.2713248 26.1858106,19.7365833 C26.2727717,19.2175694 25.953693,18.7189784 25.462133,18.6057677 C24.9876191,18.4940153 24.4909494,18.6335229 24.1335907,18.9789369 C23.8014417,19.3299658 23.5566567,19.7609738 23.4207143,20.2341422 C23.1568048,21.1381288 22.9724172,22.0654905 22.8698553,23.0046403 C22.6925894,24.6226381 22.6636544,26.2546851 22.783446,27.8784554 C22.8806564,29.3032831 23.0426738,30.5358721 23.1722877,31.5422979 C23.3019016,32.5487238 23.4423166,33.3176784 23.5179247,33.8039291 L23.604334,34.4032613 L23.5503282,34.5389592 Z" id="Path" fill="#263238"></path>
                    <path d="M28.14082,35.9637868 L16.6591898,39.7067864 C16.1992496,39.8266699 15.7286701,39.5557025 15.5790741,39.0848378 L15.5790741,39.0848378 C15.4529581,38.6017973 15.7159495,38.1011864 16.1731377,37.9540222 L27.6655691,34.1997145 C28.1269526,34.0676788 28.6051187,34.3430148 28.7456848,34.8216631 L28.7456848,34.8216631 C28.8715642,35.3108897 28.6038437,35.8164074 28.14082,35.9637868 L28.14082,35.9637868 Z" id="Path" fill="#263238"></path>
                    <path d="M28.3784455,36.7327414 L16.9292187,40.4983573 C16.6001228,40.5814152 16.3425636,40.8493784 16.2611673,41.1933942 C16.179771,41.5374101 16.2880767,41.9002565 16.5420883,42.1345375 C16.7960999,42.3688184 17.1535662,42.4355646 17.4692766,42.3076622 L18.733012,41.8892604 L21.3576932,44.6484504 C21.6636783,44.9666492 22.1134364,45.0800067 22.5242182,44.9424625 L26.628658,43.6081001 C27.0432682,43.4720272 27.3512816,43.1059788 27.4279436,42.658215 L28.0652119,38.8021339 L28.9185033,38.51943 C29.3927458,38.363297 29.6562993,37.8342308 29.5071664,37.3377277 C29.3580336,36.8412246 28.852688,36.5653002 28.3784455,36.7214333 L28.3784455,36.7327414 Z" id="Path" fill="#263238"></path>
                    <g id="Group" opacity="0.2" transform="translate(1.546273, 4.943394)" fill="#FFFFFF">
                        <path d="M1.64387395,4.85332022 C2.28001145,3.67677384 3.09751423,2.61839176 4.06333319,1.72096108 C4.70745762,1.11529471 5.43587447,0.61578634 6.22356465,0.239592671 C6.78522483,-0.00918675564 7.13086186,-0.0544193787 7.1956688,0.0586621789 C7.26047575,0.171743737 6.32077506,1.13293698 5.03543734,2.73869509 C1.68635214,6.84409831 0.946653636,12.6234797 3.14523482,17.5071465 C3.94452046,19.3956085 4.73300494,20.4585752 4.51698179,20.6734301 C4.30095865,20.8882851 4.09573666,20.6734301 3.62048574,20.2324121 C2.9780964,19.6501747 2.42124529,18.9719257 1.96790867,18.2195603 C1.25497795,17.0938112 0.725711392,15.8518406 0.401740861,14.5444097 C0.0019602392,12.9207159 -0.100656688,11.2324721 0.0993084564,9.56882117" id="Path"></path>
                    </g>
                    <g id="Group" opacity="0.2" transform="translate(10.397466, 2.374500)" fill="#FFFFFF">
                        <path d="M2.21128944,2.15546962 C1.23918529,2.46609017 0.299484602,2.46609017 0.0510579837,1.95989372 C-0.078555904,1.69529102 0.0510579837,1.35015708 0.299484602,1.00502313 C0.669610439,0.603076359 1.13097177,0.309820053 1.63882811,0.153692721 C2.14152191,-0.0189048727 2.67815378,-0.0466897281 3.19419476,0.0731614669 C3.60463874,0.188206116 3.86386651,0.418295415 3.90707114,0.694402574" id="Path"></path>
                    </g>
                    <path d="M27.2983298,43.0426923 C27.2983298,43.0426923 26.9634939,43.0426923 26.423436,43.0426923 C25.7356553,43.0650559 25.0549014,43.1946391 24.4036196,43.4271696 C23.7487343,43.6609016 23.1328186,44.0004847 22.578224,44.4335955 C22.1569789,44.761532 21.9193534,45.0103114 21.8977511,44.9876951 C22.0540019,44.7282223 22.2555363,44.501883 22.4918148,44.3205139 C23.0358998,43.8279861 23.6620212,43.4446463 24.3388127,43.1896983 C25.0113435,42.9432694 25.7222723,42.8320082 26.4342372,42.8617618 C26.7301656,42.8686332 27.0226408,42.9298739 27.2983298,43.0426923 Z" id="Path" fill="#455A64"></path>
                    <path d="M28.0976154,38.8699828 C28.0976154,38.9265236 26.0453955,39.6389374 23.4855212,40.475741 C20.9256469,41.3125445 18.8302224,41.9458012 18.8193788,41.8892604 C18.8086201,41.8327197 20.86084,41.1203058 23.4315154,40.2835023 C26.0021909,39.4466988 28.0760131,38.8134421 28.0976154,38.8699828 Z" id="Path" fill="#455A64"></path>
                    <path d="M27.8059841,40.5322817 C27.4596535,40.7258909 27.0983326,40.8885518 26.7258684,41.0185324 C26.0453955,41.2899282 25.0840925,41.6517892 24.0147779,42.0136501 C22.9454634,42.3755111 21.9841604,42.6808313 21.271284,42.8843781 C20.8923694,43.0189173 20.5015998,43.1136191 20.104759,43.167082 C20.456677,43.0056326 20.8173345,42.8659256 21.1848747,42.7486803 L23.9175675,41.8214115 L26.6394592,40.8828346 C27.0175701,40.7298988 27.4079591,40.6125829 27.8059841,40.5322817 L27.8059841,40.5322817 Z" id="Path" fill="#455A64"></path>
                </g>
                <g id="Character" transform="translate(0.000000, 125.369350)">
                    <path d="M393.211466,93.9085104 C381.310573,82.1084904 360.213535,83.4865104 349.740749,96.7687704 C345.618713,102.00293 342.816593,108.85829 337.147441,112.03121 C328.492246,116.90639 317.932908,110.75741 308.152538,111.64907 C296.684404,112.69127 287.27188,125.15135 288.678349,137.36825 C289.31667,142.88033 291.761762,148.75139 289.338308,153.66131 C286.254894,159.92609 277.329225,160.18085 273.575034,166.00559 C270.188689,171.27449 272.828523,179.04467 277.751165,182.68079 C282.673808,186.31691 289.013738,186.76853 294.985822,186.47903 C300.957907,186.18953 307.016543,185.32103 312.837162,186.71063 C319.252825,188.26235 324.738055,192.50063 330.894062,195.09455 C345.575437,201.39407 362.766818,197.88533 376.333836,189.23507 C389.900854,180.58481 400.460191,167.36045 409.634698,153.56867" id="Path" fill="#E8505B"></path>
                    <g id="Group" opacity="0.8" transform="translate(272.051547, 85.865741)" fill="#FFFFFF">
                        <path d="M121.159919,8.04276962 C109.259026,-3.75725038 88.1619882,-2.37923038 77.6892024,10.9030296 C73.5671658,16.1371896 70.7650465,22.9925496 65.0958938,26.1654696 C56.4406989,31.0406496 45.8813611,24.8916696 36.1009908,25.7833296 C24.6328575,26.8255296 15.220333,39.2856096 16.6268022,51.5025096 C17.2651228,57.0145896 19.7102154,62.8856496 17.2867608,67.7955696 C14.2033476,74.0603496 5.27767787,74.3151096 1.52348708,80.1398496 C-1.86285794,85.4087496 0.776976514,93.1789296 5.69961863,96.8150496 C10.6222607,100.45117 16.962191,100.90279 22.9342755,100.61329 C28.90636,100.32379 34.9649965,99.4552896 40.785615,100.84489 C47.2012783,102.39661 52.6865081,106.63489 58.8425155,109.22881 C73.5238898,115.52833 90.7152708,112.01959 104.282289,103.36933 C117.849307,94.7190696 128.408645,81.4947096 137.583151,67.7029296" id="Path"></path>
                    </g>
                    <path d="M390.322794,109.98155 C380.5857,99.8143104 362.63699,101.23865 354.45783,112.83023 C349.470274,119.90561 346.603241,130.72133 338.391625,131.90249 C332.830662,132.71309 327.572631,128.23163 321.957573,128.69483 C314.492468,129.29699 309.980947,139.03577 311.895909,146.77121 C313.810871,154.50665 320.17244,160.07663 326.847759,163.71275 C349.967948,176.27705 380.780442,169.63013 397.560701,148.46189" id="Path" fill="#E8505B"></path>
                    <polyline id="Path" fill="#FFBE9D" points="610.727333 135.86285 598.209757 116.87165 614.492343 104.51579 625.895562 129.30857 611.484663 135.68915"></polyline>
                    <path d="M625.213966,125.91563 L634.074721,143.01929 C634.074721,143.01929 653.289254,139.12841 655.215035,142.11605 L624.856939,161.68625 L610.034917,135.64283 L625.213966,125.91563 Z" id="Path" fill="#E8505B"></path>
                    <g id="Group" opacity="0.6" transform="translate(623.512445, 147.210625)" fill="#FFFFFF">
                        <path d="M0.370784427,0.452245374 C-0.123594809,1.04187276 -0.123594809,1.93543798 0.370784427,2.52506537 C0.910546742,3.06199548 1.74598399,3.06199548 2.2857463,2.52506537 C2.81167257,1.8996824 2.81167257,0.950248348 2.2857463,0.324865374 C1.67371322,-0.182387983 0.797328506,-0.0855262433 0.295051472,0.544885374" id="Path"></path>
                    </g>
                    <g id="Group" opacity="0.6" transform="translate(623.461289, 141.225025)" fill="#FFFFFF">
                        <path d="M1.39565018,20.4612252 L0,17.7746652 L29.6332236,0.0225251796 C29.6332236,0.0225251796 31.3426246,-0.22065482 31.7970223,0.89102518 L1.39565018,20.4612252 Z" id="Path"></path>
                    </g>
                    <path d="M634.475024,142.53293 C634.550757,142.69505 633.858341,143.25089 633.393125,144.22361 C632.927908,145.19633 632.927908,146.12273 632.765623,146.15747 C632.603338,146.19221 632.289587,145.11527 632.852175,143.94569 C633.414763,142.77611 634.420929,142.37081 634.475024,142.53293 Z" id="Path" fill="#263238"></path>
                    <path d="M638.445595,141.89603 C638.564604,142.02341 638.077749,142.70663 637.947921,143.70251 C637.818093,144.69839 638.077749,145.50899 637.947921,145.59005 C637.818093,145.67111 637.201411,144.84893 637.374514,143.60987 C637.547618,142.37081 638.359043,141.76865 638.445595,141.89603 Z" id="Path" fill="#263238"></path>
                    <path d="M642.556812,144.81419 C642.437803,144.92999 641.788664,144.26993 641.680474,143.15825 C641.572284,142.04657 642.069958,141.24755 642.199786,141.34019 C642.329614,141.43283 642.199786,142.17395 642.275519,143.08877 C642.351252,144.00359 642.68664,144.69839 642.556812,144.81419 Z" id="Path" fill="#263238"></path>
                    <path d="M632.05157,138.87365 C632.05157,139.05893 631.261783,139.27895 630.461177,139.88111 C629.660572,140.48327 629.162898,141.18965 629.011432,141.09701 C628.859966,141.00437 629.162898,140.04323 630.093332,139.34843 C631.023765,138.65363 632.05157,138.71153 632.05157,138.87365 Z" id="Path" fill="#263238"></path>
                    <path d="M630.201522,135.45755 C630.201522,135.52703 629.703848,136.00181 628.676044,136.43027 C627.708636,136.836349 626.674627,137.02934 625.635906,136.99769 C625.409604,137.01291 625.182563,136.985474 624.965129,136.91663 C624.631928,136.819232 624.406897,136.486846 624.424179,136.11761 C624.446709,135.79459 624.611376,135.502274 624.867758,135.33017 C625.058111,135.20283 625.266317,135.108998 625.48444,135.05225 C625.837306,134.930566 626.199263,134.84146 626.56634,134.78591 C627.219052,134.703757 627.879743,134.731106 628.524578,134.86697 C629.606477,135.11015 630.201522,135.55019 630.169065,135.61967 C630.136608,135.68915 629.509106,135.43439 628.459664,135.31859 C627.854025,135.253221 627.243007,135.272685 626.642073,135.37649 C626.274408,135.434357 625.912327,135.527369 625.560173,135.65441 C625.181509,135.77021 624.911034,135.94391 624.911034,136.15235 C624.911034,136.36079 624.911034,136.25657 625.051681,136.31447 C625.216953,136.336159 625.384082,136.336159 625.549354,136.31447 C625.9172,136.31447 626.285046,136.31447 626.631254,136.31447 C627.245403,136.255461 627.853572,136.139221 628.448845,135.96707 C629.022505,135.758044 629.607888,135.587868 630.201522,135.45755 Z" id="Path" fill="#263238"></path>
                    <path d="M630.136608,135.81653 C630.136608,135.87443 629.487468,135.49229 628.849147,134.49641 C628.483088,133.9141 628.215739,133.267314 628.059361,132.58571 C627.960778,132.180428 627.90275,131.765071 627.886257,131.34665 C627.809696,130.802408 628.002143,130.254578 628.39475,129.89915 C628.664291,129.710802 629.012366,129.710802 629.281907,129.89915 C629.47227,130.034685 629.640422,130.202927 629.779581,130.39709 C630.034768,130.724937 630.242635,131.091848 630.396264,131.48561 C630.652185,132.152289 630.752449,132.875681 630.688376,133.59317 C630.569367,134.75117 630.060875,135.39965 630.017599,135.35333 C630.127585,134.794712 630.21064,134.230406 630.266436,133.66265 C630.26736,133.026676 630.138109,132.398205 629.887771,131.82143 C629.742894,131.485248 629.553408,131.173226 629.325183,130.89503 C629.087165,130.58237 628.805871,130.38551 628.708501,130.50131 C628.515,130.739742 628.431614,131.058496 628.481302,131.36981 C628.478502,131.759465 628.518445,132.148124 628.600311,132.52781 C628.721804,133.162817 628.929571,133.775343 629.216993,134.34587 C629.714667,135.24911 630.201522,135.73547 630.136608,135.81653 Z" id="Path" fill="#263238"></path>
                    <polyline id="Path" fill="#263238" points="564.367945 68.3630304 603.251408 133.76687 624.510731 118.29599 588.699862 39.4940904"></polyline>
                    <path d="M567.516272,54.0154104 C567.678557,54.0848904 566.510106,56.7482904 565.958337,60.2570304 C565.406569,63.7657704 565.633768,66.6839304 565.460664,66.7070904 C564.6679,62.3348941 565.399187,57.803323 567.516272,53.9690904 L567.516272,54.0154104 Z" id="Path" fill="#455A64"></path>
                    <path d="M563.524064,54.2006904 C563.686349,54.2006904 563.524064,57.0725304 563.967642,60.5465304 C564.411221,64.0205304 565.222646,66.7302504 565.049542,66.7881504 C563.366338,62.8531985 562.83093,58.4663978 563.513245,54.2006904 L563.524064,54.2006904 Z" id="Path" fill="#455A64"></path>
                    <path d="M412.739749,68.1661704 L386.07093,59.3537904 C353.895243,103.20725 356.048222,151.39163 407.838745,179.91317 L436.606449,145.42793 L412.739749,68.1661704 Z" id="Path" fill="#263238"></path>
                    <path d="M415.347127,61.1718504 C398.274755,71.8370304 389.781845,94.2906504 391.859091,116.29265 C394.141899,140.40221 409.028834,163.90961 436.314336,170.40599 L619.728736,131.16137 C635.0338,127.88462 648.354103,117.889457 656.450307,103.606586 C664.546511,89.3237159 666.676801,72.0618073 662.323114,56.0187504 L662.323114,56.0187504 C654.017841,25.4076113 624.694362,7.195112 595.743027,14.6665704 L415.347127,61.1718504 Z" id="Path" fill="#E0E0E0"></path>
                    <path d="M415.347127,61.1718504 L417.045709,60.7086504 L422.054903,59.3885304 L441.345168,54.3512304 L512.339405,35.9390304 L561.371084,23.2010304 L588.699862,16.1372304 L595.786303,14.3191704 L599.432304,13.5780504 C600.038167,13.4506704 600.644031,13.3117104 601.260714,13.2074904 L603.121581,13.0337904 C604.365765,12.9295704 605.609949,12.7674504 606.854133,12.6979704 L610.640781,12.6979704 C611.907243,12.7040641 613.172044,12.7968938 614.427429,12.9758904 L616.331572,13.1843304 L617.283643,13.3001304 L618.224896,13.4969904 L622.000724,14.3191704 C623.255728,14.6318304 624.478274,15.0834504 625.722458,15.4771704 C626.339141,15.6856104 626.966643,15.8708904 627.583325,16.1024904 L629.390097,16.8783504 L631.196869,17.6773704 C631.814385,17.9153715 632.414664,18.2017881 632.992822,18.5342904 L636.487357,20.4797304 C637.644989,21.1629504 638.726889,21.9851304 639.852064,22.7957304 C640.403833,23.1894504 640.933963,23.5484304 641.50737,23.9537304 L643.076124,25.2738504 L644.655697,26.6055504 L645.445484,27.2656104 L646.170356,28.0067304 C654.363938,35.8829148 660.220501,46.157317 663.015529,57.5588904 C665.906705,69.3886757 665.332647,81.8835743 661.371042,93.3526704 C657.2766,105.141602 649.83925,115.264302 640.100901,122.30267 C635.992296,125.275659 631.526841,127.640117 626.825996,129.33173 C622.15219,131.08031 617.294462,131.84459 612.566562,132.90995 L584.437178,138.91997 L530.731694,150.47681 L436.411707,170.61443 L436.314336,170.61443 C431.50587,169.401725 426.836491,167.627051 422.390292,165.32237 C414.175865,160.904895 407.138228,154.336221 401.931575,146.22695 C399.586307,142.519347 397.592929,138.570261 395.981128,134.43851 C395.591644,133.44263 395.288712,132.41201 394.899229,131.41613 C394.537561,130.43673 394.230484,129.435231 393.979614,128.41691 C393.709139,127.40945 393.449484,126.41357 393.189828,125.41769 L392.605602,122.44163 C392.390979,121.468042 392.22843,120.48214 392.118747,119.48873 C391.999738,118.51601 391.86991,117.54329 391.750902,116.58215 C391.631893,115.62101 391.621074,114.65987 391.55616,113.71031 C391.491246,112.76075 391.43443,111.82277 391.44797,110.89637 C391.311292,104.092897 392.210204,97.3109748 394.109442,90.8166504 C395.609667,85.6129611 397.795464,80.6648216 400.600838,76.1216304 C402.65594,72.7785637 405.098888,69.7279823 407.871202,67.0429104 C408.43379,66.5102304 408.953101,65.9659704 409.461594,65.5259304 L410.954615,64.3100304 L412.209619,63.2794104 L413.291518,62.5267104 L415.293032,61.1834304 L413.323975,62.5846104 L412.242076,63.3488904 L410.987072,64.3910904 L409.558965,65.6069904 C409.050472,66.0586104 408.54198,66.5912904 407.979392,67.1355504 C405.233017,69.8291846 402.815659,72.8834776 400.784761,76.2258504 C397.997976,80.7597367 395.830332,85.6963197 394.34746,90.8861304 C392.478943,97.3588332 391.598501,104.111851 391.740083,110.88479 C391.740083,111.81119 391.740083,112.74917 391.848272,113.68715 C391.956462,114.62513 391.956462,115.58627 392.064652,116.54741 C392.172842,117.50855 392.30267,118.46969 392.432498,119.44241 C392.543151,120.428017 392.705694,121.406153 392.919353,122.37215 C393.114095,123.34487 393.308837,124.34075 393.503578,125.33663 C393.69832,126.33251 394.033709,127.30523 394.293365,128.31269 C394.549274,129.325614 394.856262,130.322955 395.212979,131.30033 C395.559187,132.28463 395.862119,133.30367 396.294879,134.28797 C397.90179,138.392109 399.887931,142.314062 402.223687,145.99535 C404.780961,149.846704 407.719102,153.391408 410.987072,156.56789 C414.525091,159.821609 418.402338,162.627113 422.541757,164.92865 C426.956098,167.214074 431.593224,168.969483 436.368431,170.16281 L436.281879,170.16281 L530.569409,149.87465 L584.31817,138.36413 L612.447553,132.34253 C617.186272,131.26559 622.033181,130.51289 626.631254,128.77589 C631.283814,127.109048 635.70253,124.771555 639.765512,121.82789 C649.414425,114.851981 656.780526,104.817505 660.830093,93.1326504 C664.754756,81.779408 665.325051,69.4095095 662.463761,57.6978504 C659.70269,46.4064645 653.910178,36.228873 645.80251,28.4236104 L645.077638,27.6940704 L644.331127,27.1266504 L642.773192,25.8181104 L641.215257,24.5095704 C640.695945,24.0811104 640.133358,23.7337104 639.57077,23.3515704 C638.488871,22.6104504 637.406971,21.7882704 636.249339,21.1166304 L632.787261,19.1827704 C632.21023,18.8641171 631.617978,18.578084 631.012946,18.3258504 L629.216993,17.5499904 L627.42104,16.7625504 C626.815177,16.5425304 626.198494,16.3572504 625.581811,16.1603904 C624.348446,15.7782504 623.136719,15.3150504 621.892535,15.0023904 L618.159982,14.1917904 L617.229548,13.9833504 L616.277477,13.8791304 L614.394972,13.6706904 C613.150691,13.4879078 611.896691,13.3912071 610.640781,13.3811904 L606.897409,13.3811904 C605.653225,13.4506704 604.41986,13.6127904 603.197313,13.7170104 L601.347266,13.8907104 C600.741402,13.9833504 600.135538,14.1223104 599.529675,14.2496904 L595.92695,14.9792304 L588.808052,16.7046504 L561.490093,23.7337104 L512.447595,36.3906504 L441.420901,54.5712504 L422.098179,59.5506504 L417.067347,60.8244504 L415.347127,61.1718504 Z" id="Path" fill="#263238"></path>
                    <path d="M436.314336,170.38283 L412.123067,229.25555 C412.123067,229.25555 526.26345,217.47869 521.394902,152.17907 L436.314336,170.38283 Z" id="Path" fill="#E8505B"></path>
                    <path d="M501.725972,38.8919304 C501.725972,38.8919304 446.841217,-18.1048296 377.101984,5.90051042 L415.368765,61.1718504 L501.725972,38.8919304 Z" id="Path" fill="#E8505B"></path>
                    <path d="M601.920672,13.8328104 C625.473621,32.3608104 639.873702,104.80529 628.524578,127.81475 C695.277768,106.91285 709.277546,45.5967504 709.277546,45.5967504 C661.024835,-2.50656958 601.920672,13.8328104 601.920672,13.8328104 Z" id="Path" fill="#E8505B"></path>
                    <path d="M401.98567,143.45933 C402.093859,143.56355 398.426221,148.26503 393.784872,153.95081 C389.143524,159.63659 385.281143,164.15279 385.129677,164.03699 C384.978211,163.92119 388.678307,159.23129 393.330475,153.54551 C397.982642,147.85973 401.87748,143.34353 401.98567,143.45933 Z" id="Path" fill="#455A64"></path>
                    <path d="M709.245089,45.5735904 C709.245089,45.5735904 709.115261,45.8399304 708.833968,46.3494504 L707.568145,48.5959704 L705.501717,52.2552504 C705.090596,52.9732104 704.647017,53.7490704 704.1818,54.5712504 L702.515675,57.1188504 C701.336405,58.9137504 700.048945,60.9286704 698.588381,63.0825504 L693.492635,69.8452704 C692.529744,71.0032704 691.491121,72.1612704 690.441678,73.4234904 C689.392236,74.6857104 688.353613,75.9595104 687.19598,77.1638304 C684.794164,79.5956304 682.327433,82.2474504 679.449581,84.6908304 C673.32329,90.2082242 666.621497,94.9489064 659.477718,98.8184304 C655.503384,100.987062 651.397333,102.867261 647.187342,104.44631 C645.023543,105.29165 642.79483,106.02119 640.598575,106.87811 C638.308067,107.658641 635.978291,108.300418 633.620324,108.80039 C614.708723,113.28185 593.860522,117.86753 571.95206,122.69639 C528.167592,132.37727 488.515981,141.01595 459.802372,147.22283 L425.787456,154.57613 L416.537216,156.53315 L414.12458,157.01951 C413.583631,157.13531 413.302337,157.17005 413.302337,157.17005 L414.113761,156.96161 L416.515578,156.40577 L425.74418,154.34453 L459.71582,146.84069 L571.84387,122.14055 C593.719875,117.27695 614.578895,112.70285 633.512134,108.24455 C635.842675,107.751869 638.146829,107.125649 640.414652,106.36859 C642.654183,105.48851 644.872077,104.78213 647.025057,103.93679 C651.218069,102.372215 655.309429,100.511464 659.272158,98.3668104 C666.394728,94.5274318 673.084509,89.8302804 679.211563,84.3665904 C682.078596,81.9347904 684.556146,79.3061304 686.947143,76.8859104 C688.158871,75.7279104 689.186675,74.3730504 690.257755,73.1803104 C691.328836,71.9875704 692.35664,70.7948304 693.319531,69.6252504 L698.436915,62.9088504 C699.908298,60.7665504 701.206577,58.7632104 702.407485,56.9914704 L704.084429,54.4554504 L705.425985,52.1394504 L707.535688,48.5149104 C708.109095,47.5537704 708.541855,46.8126504 708.844787,46.2915504 C709.147718,45.7704504 709.245089,45.5735904 709.245089,45.5735904 Z" id="Path" fill="#263238"></path>
                    <path d="M535.556965,149.22617 C535.556965,149.22617 535.481232,149.15669 535.362223,148.99457 L534.832093,148.27661 L532.852217,145.49741 L531.42411,143.47091 C530.926436,142.71821 530.428762,141.86129 529.866174,140.95805 C528.784275,139.15157 527.421082,137.13665 526.198536,134.75117 L524.197022,131.04557 C523.504606,129.76019 522.898743,128.34743 522.217146,126.92309 C520.799858,124.09757 519.577312,120.93623 518.224937,117.65909 C512.65168,103.162791 509.445935,87.7496445 508.747499,72.0917904 C508.660947,68.4904104 508.509481,65.0743104 508.671766,61.8666504 C508.73668,60.2686104 508.671766,58.7168904 508.834051,57.2346504 C508.996336,55.7524104 509.072069,54.3280704 509.180259,52.9732104 C509.342544,50.2519104 509.764484,47.8201104 510.034959,45.6778104 C510.197244,44.6124504 510.305434,43.6165704 510.467719,42.7017504 C510.630004,41.7869304 510.803108,40.9763304 510.954574,40.2236304 C511.246686,38.7645504 511.473885,37.6297104 511.646989,36.7496304 C511.722722,36.3906504 511.787636,36.1011504 511.841731,35.8579704 C511.895826,35.6147904 511.917464,35.5568904 511.928283,35.5684704 C511.935398,35.6725513 511.935398,35.7770495 511.928283,35.8811304 C511.928283,36.1127304 511.841731,36.4138104 511.787636,36.7727904 L511.20341,40.2467904 C511.073583,40.9994904 510.922117,41.8216704 510.759832,42.7249104 C510.597547,43.6281504 510.521814,44.6356104 510.381167,45.7125504 C510.143149,47.8548504 509.753665,50.2750704 509.613018,52.9847904 C509.515647,54.3396504 509.407458,55.7639904 509.310087,57.2346504 C509.212716,58.7053104 509.223535,60.2570304 509.180259,61.8666504 C509.039612,65.0627304 509.180259,68.4672504 509.299268,72.0570504 C510.030714,87.6457884 513.209037,102.991467 518.700973,117.45065 C520.031709,120.73937 521.232618,123.90071 522.628268,126.71465 C523.309864,128.13899 523.904909,129.54017 524.575687,130.83713 L526.544743,134.54273 C527.734833,136.93979 529.05475,138.96629 530.12583,140.78435 C530.677599,141.69917 531.20773,142.55609 531.651308,143.32037 C532.094887,144.08465 532.614199,144.74471 533.025321,145.37003 C533.836745,146.52803 534.464247,147.53549 534.929464,148.21871 L535.405499,148.97141 C535.465083,149.049728 535.515916,149.135228 535.556965,149.22617 Z" id="Path" fill="#263238"></path>
                    <path d="M484.036917,88.5006504 L368.998558,113.97665 C368.998558,113.97665 368.490065,126.00827 371.313823,126.101208 C373.672363,126.18197 459.196508,109.66889 486.936408,104.29577 C489.093694,103.878696 490.971809,102.470561 492.075099,100.442987 C493.178388,98.415413 493.395989,95.9721393 492.670474,93.7579704 L492.670474,93.7579704 C491.41812,89.9481478 487.736551,87.7062926 484.036917,88.5006504 L484.036917,88.5006504 Z" id="Path" fill="#E8505B"></path>
                    <ellipse id="Oval" fill="#FAFAFA" transform="translate(572.133955, 77.090685) rotate(-89.920000) translate(-572.133955, -77.090685) " cx="572.133955" cy="77.0906851" rx="27.3519565" ry="27.4910666"></ellipse>
                    <path d="M599.637865,77.1406704 C599.626709,76.9865013 599.626709,76.8316396 599.637865,76.6774704 C599.637865,76.3416504 599.572951,75.9016104 599.540494,75.3341904 C599.540494,75.0331104 599.540494,74.7088704 599.47558,74.3383104 C599.410666,73.9677504 599.356571,73.5856104 599.280838,73.1803104 C599.205105,72.7750104 599.140191,72.3002304 599.064458,71.8138704 C598.988725,71.3275104 598.804802,70.8179904 598.664155,70.2737304 C598.346702,69.0878978 597.952663,67.9271033 597.484885,66.7997304 C595.476721,62.1576389 592.323365,58.1899211 588.364473,55.3239504 C584.98083,52.8555023 581.132684,51.211135 577.091082,50.5066704 C575.988942,50.3065021 574.875876,50.1827246 573.758832,50.1361104 C573.185425,50.1361104 572.612018,50.0550504 572.038612,50.0666304 L570.296754,50.1592704 L569.420415,50.1592704 L568.533258,50.2866504 L566.758943,50.5645704 L564.995447,51.0161904 L564.09747,51.2362104 L563.231951,51.5604504 C558.279053,53.2449087 553.884402,56.4209585 550.573728,60.7086504 C543.156638,70.1769692 543.156638,83.9769916 550.573728,93.4453104 C553.87128,97.7403114 558.254456,100.928272 563.199494,102.62825 L564.075832,102.95249 L564.973809,103.18409 L566.737305,103.63571 L568.51162,103.91363 L569.387958,104.05259 L570.275116,104.05259 L572.016974,104.14523 C572.59038,104.14523 573.163787,104.14523 573.726375,104.08733 C574.843504,104.041992 575.956648,103.918205 577.058625,103.71677 C581.075733,103.021829 584.899569,101.384707 588.256283,98.9226504 C593.289693,95.4511 596.970143,90.1369119 598.61006,83.9728704 C598.739888,83.4286104 598.902173,82.9306704 598.999544,82.4443104 C599.096915,81.9579504 599.161829,81.4947504 599.226743,81.0662904 C599.291657,80.6378304 599.36739,80.2556904 599.421485,79.9082904 C599.47558,79.5608904 599.421485,79.2134904 599.486399,78.9239904 C599.529675,78.3527104 599.562132,77.9010904 599.58377,77.5691304 C599.592366,77.4174671 599.610438,77.2665897 599.637865,77.1175104 C599.650008,77.2716369 599.650008,77.426584 599.637865,77.5807104 L599.637865,78.9239904 C599.637865,79.2250704 599.637865,79.5608904 599.637865,79.9314504 C599.637865,80.3020104 599.529675,80.6957304 599.464761,81.0894504 C599.399847,81.4831704 599.334933,81.9811104 599.270019,82.4790504 C599.205105,82.9769904 599.021182,83.4749304 598.891354,84.0307704 C598.587099,85.2444567 598.200186,86.4326563 597.733722,87.5858304 C597.158595,88.9539223 596.48205,90.2705292 595.71057,91.5230304 C593.814862,94.5739642 591.386639,97.2044444 588.559215,99.2700504 C585.134115,101.795241 581.228477,103.476086 577.123539,104.19155 C576.003547,104.396261 574.872446,104.523903 573.737194,104.57369 C573.163787,104.57369 572.579561,104.65475 571.995336,104.64317 L570.23184,104.56211 L569.333863,104.56211 L568.435887,104.42315 L566.629115,104.14523 L564.833162,103.69361 L563.924367,103.46201 L563.037209,103.13777 C557.984445,101.41679 553.502876,98.1720134 550.13015,93.7927104 C542.528359,84.1165824 542.528359,69.9910584 550.13015,60.3149304 C553.536792,55.9565659 558.043977,52.7404194 563.112942,51.0509304 L564.000099,50.7382704 L564.908895,50.5066704 L566.715667,50.0550504 L568.522439,49.7771304 L569.409596,49.6497504 L570.307573,49.6497504 L572.081888,49.5686904 C572.666113,49.5686904 573.250339,49.6265904 573.823746,49.6497504 C574.959635,49.6976101 576.091094,49.8291614 577.210091,50.0434704 C581.274994,50.7569085 585.142759,52.4215364 588.537577,54.9186504 C591.362436,56.989326 593.783983,59.6284009 595.667294,62.6888304 C597.117635,64.9773501 598.189883,67.5155435 598.837259,70.1926704 C598.967087,70.7369304 599.107734,71.2464504 599.205105,71.7443904 C599.302476,72.2423304 599.345752,72.7055304 599.399847,73.1339904 C599.453942,73.5624504 599.518856,73.9561704 599.572951,74.2919904 C599.627046,74.6278104 599.572951,74.9867904 599.572951,75.2878704 C599.572951,75.8668704 599.572951,76.3069104 599.572951,76.6427304 C599.608202,76.8063492 599.629924,76.9729728 599.637865,77.1406704 Z" id="Path" fill="#263238"></path>
                    <path d="M246.927852,175.96439 C243.747068,177.46979 240.122705,177.28451 236.671447,176.87921 C233.220188,176.47391 229.725653,175.84859 226.31767,176.56655 C221.038001,177.72455 216.385833,181.93967 211.008794,181.63859 C203.554507,181.22171 199.107901,172.62935 192.519133,168.90059 C184.513078,164.26859 173.769817,167.16359 167.321697,158.64071 C163.404721,153.452252 162.794076,146.248962 165.774581,140.39063 C170.459205,131.34665 181.278199,129.84125 189.717014,133.09523 C196.976559,135.88601 202.916186,141.54863 208.57452,147.15335 C210.500301,149.06405 212.426082,150.98633 214.416777,152.82755 C220.846032,158.75512 229.266935,161.597657 237.71007,160.69037 L237.71007,160.69037 C241.753004,160.243061 245.800778,161.48803 249.005099,164.16437 C249.866412,164.897141 250.54322,165.848432 250.974156,166.93199 L250.974156,166.93199 C251.425451,167.97397 251.622725,169.121353 251.547563,170.26703 C251.287907,173.10413 249.502773,174.74849 246.927852,175.96439 Z" id="Path" fill="#E8505B"></path>
                    <g id="Group" opacity="0.8" transform="translate(163.898436, 131.523780)" fill="#FFFFFF">
                        <path d="M83.0294161,44.4406106 C79.8486319,45.9460106 76.2242691,45.7607306 72.7730101,45.3554306 C69.3217511,44.9501306 65.8272162,44.3248106 62.4192332,45.0427706 C57.1395643,46.2007706 52.487397,50.4158906 47.1103571,50.1148106 C39.6560705,49.6979306 35.2094641,41.1055706 28.620697,37.3768106 C20.6146417,32.7448106 9.87138098,35.6398106 3.42326077,27.1169306 C-0.493714929,21.9284717 -1.10436024,14.7251818 1.87614467,8.86685063 C6.56076893,-0.177129367 17.3797626,-1.68252937 25.8185776,1.57145063 C33.0781224,4.36223063 39.0177499,10.0248506 44.6760836,15.6295706 C46.6018644,17.5402706 48.5276453,19.4625506 50.5183401,21.3037706 C56.947596,27.2313404 65.3684984,30.073877 73.8116335,29.1665906 L73.8116335,29.1665906 C77.8545672,28.7192809 81.9023417,29.9642505 85.1066628,32.6405906 C85.9679758,33.3733608 86.644784,34.3246527 87.0757197,35.4082106 L87.0757197,35.4082106 C87.5270146,36.4501906 87.7242887,37.5975732 87.6491264,38.7432506 C87.3894705,41.5803506 85.6043366,43.2247106 83.0294161,44.4406106 Z" id="Path"></path>
                    </g>
                    <path d="M6.58390848,195.76619 C4.64367431,196.504418 2.90679735,197.750419 1.53143845,199.39073 C0.14387105,201.067562 -0.342274852,203.389421 0.243978202,205.53971 C0.937976508,207.695002 3.05812444,208.922728 5.12334434,208.36523 C6.15114874,207.98309 6.99503024,207.09143 8.06611061,206.89457 C9.77551161,206.59349 11.3118087,208.16837 12.9779337,208.49261 C15.5203972,208.96739 17.9113948,206.23451 17.8899026,203.46689 C17.8681189,200.69927 15.7259581,198.61487 13.6811683,196.98209 C11.6070714,195.453846 9.0000419,195.007211 6.58390848,195.76619" id="Path" fill="#E8505B"></path>
                    <g id="Group" opacity="0.8" transform="translate(0.000000, 195.403871)" fill="#FFFFFF">
                        <path d="M6.58390848,0.362318937 C4.64367431,1.1005469 2.90679735,2.34654736 1.53143845,3.98685894 C0.14387105,5.66369016 -0.342274852,7.98554937 0.243978202,10.1358389 C0.937976508,12.291131 3.05812444,13.5188561 5.12334434,12.9613589 C6.15114874,12.5792189 6.99503024,11.6875589 8.06611061,11.4906989 C9.77551161,11.1896189 11.3118087,12.7644989 12.9779337,13.0887389 C15.5203972,13.5635189 17.9113948,10.8306389 17.8899026,8.06301894 C17.8681189,5.29539894 15.7259581,3.21099894 13.6811683,1.57821894 C11.6070714,0.0499746922 9.0000419,-0.396660662 6.58390848,0.362318937" id="Path"></path>
                    </g>
                </g>
            </g>
        </g>
    </g>
</svg>